<?xml version="1.0" encoding="UTF-8"?>
<svg width="160mm" height="90mm" viewBox="0 0 25000 16900" xmlns="http://www.w3.org/2000/svg" version="1.2" baseProfile="tiny" viewport-fill="red"> 
<rect x="0" y="0" width="100%" height="100%" fill="#dedede" stroke-width="0"/><text text-anchor="start" x="200" y="1050" font-family="Verdana" font-size="1050" fill="#000000" >Create LinkedList Element - relation</text>
<path fill="none" stroke="#000000" stroke-width="50" stroke-linejoin="round" d="M 1400,11500 L 24800,11500"/>
<text text-anchor="end" x="1250" y="11578" font-family="Verdana" font-size="315" fill="#000000" >0</text>
<path fill="none" stroke="#000000" stroke-width="50" stroke-linejoin="round" d="M 1400,10555 L 24800,10555"/>
<text text-anchor="end" x="1250" y="10633" font-family="Verdana" font-size="315" fill="#000000" >4</text>
<path fill="none" stroke="#000000" stroke-width="50" stroke-linejoin="round" d="M 1400,9610 L 24800,9610"/>
<text text-anchor="end" x="1250" y="9688" font-family="Verdana" font-size="315" fill="#000000" >8</text>
<path fill="none" stroke="#000000" stroke-width="50" stroke-linejoin="round" d="M 1400,8664 L 24800,8664"/>
<text text-anchor="end" x="1250" y="8742" font-family="Verdana" font-size="315" fill="#000000" >12</text>
<path fill="none" stroke="#000000" stroke-width="50" stroke-linejoin="round" d="M 1400,7719 L 24800,7719"/>
<text text-anchor="end" x="1250" y="7797" font-family="Verdana" font-size="315" fill="#000000" >16</text>
<path fill="none" stroke="#000000" stroke-width="50" stroke-linejoin="round" d="M 1400,6773 L 24800,6773"/>
<text text-anchor="end" x="1250" y="6851" font-family="Verdana" font-size="315" fill="#000000" >20</text>
<path fill="none" stroke="#000000" stroke-width="50" stroke-linejoin="round" d="M 1400,5828 L 24800,5828"/>
<text text-anchor="end" x="1250" y="5906" font-family="Verdana" font-size="315" fill="#000000" >24</text>
<path fill="none" stroke="#000000" stroke-width="50" stroke-linejoin="round" d="M 1400,4882 L 24800,4882"/>
<text text-anchor="end" x="1250" y="4960" font-family="Verdana" font-size="315" fill="#000000" >28</text>
<path fill="none" stroke="#000000" stroke-width="50" stroke-linejoin="round" d="M 1400,3937 L 24800,3937"/>
<text text-anchor="end" x="1250" y="4015" font-family="Verdana" font-size="315" fill="#000000" >32</text>
<path fill="none" stroke="#000000" stroke-width="50" stroke-linejoin="round" d="M 1400,2991 L 24800,2991"/>
<text text-anchor="end" x="1250" y="3069" font-family="Verdana" font-size="315" fill="#000000" >36</text>
<path fill="none" stroke="#000000" stroke-width="50" stroke-linejoin="round" d="M 1400,2046 L 24800,2046"/>
<text text-anchor="end" x="1250" y="2124" font-family="Verdana" font-size="315" fill="#000000" >40</text>
<path fill="none" stroke="#000000" stroke-width="50" stroke-linejoin="round" d="M 1700,1700 L 1700,12000"/>
<text text-anchor="middle" x="1700" y="12450" font-family="Verdana" font-size="315" fill="#000000" >59:48:292</text>
<path fill="none" stroke="#000000" stroke-width="50" stroke-linejoin="round" d="M 1700,11250 L 1700,12000"/>
<text text-anchor="middle" x="6360" y="12450" font-family="Verdana" font-size="315" fill="#000000" >59:48:778</text>
<path fill="none" stroke="#000000" stroke-width="50" stroke-linejoin="round" d="M 6360,11250 L 6360,12000"/>
<text text-anchor="middle" x="11020" y="12450" font-family="Verdana" font-size="315" fill="#000000" >59:49:7</text>
<path fill="none" stroke="#000000" stroke-width="50" stroke-linejoin="round" d="M 11020,11250 L 11020,12000"/>
<text text-anchor="middle" x="15680" y="12450" font-family="Verdana" font-size="315" fill="#000000" >59:49:192</text>
<path fill="none" stroke="#000000" stroke-width="50" stroke-linejoin="round" d="M 15680,11250 L 15680,12000"/>
<text text-anchor="middle" x="20340" y="12450" font-family="Verdana" font-size="315" fill="#000000" >59:49:458</text>
<path fill="none" stroke="#000000" stroke-width="50" stroke-linejoin="round" d="M 20340,11250 L 20340,12000"/>
<path fill="none" stroke="#004586" stroke-width="80" stroke-linejoin="round" d="M 1700,8296 L 1738,9573 1777,8935 1815,8083 1854,5956 1892,8722 1931,7871 1969,7871 2008,6594 2046,5743 2085,8935 2123,8935 2162,8935 2200,7871 2239,3828 2277,8935 2316,6807 2354,6807 2393,6807 2431,7445 2470,9786 2508,9147 2547,8509 2585,5105 2624,3190 2662,4679 2701,3828 2739,5105 2778,7445 2816,4254 2855,8083 2893,8722 2932,6594 2970,9573 3009,9573 3047,5956 3086,9573 3124,8935 3163,8083 3201,9786 3240,8722 3278,7232 3317,9573 3355,6807 3394,10424 3432,9573 3471,7232 3509,9573 3548,7232 3586,6594 3625,9786 3663,9786 3702,8509 3740,7658 3779,5530 3817,9573 3856,8509 3894,9147 3933,7871 3971,5743 4010,9786 4048,8509 4087,6594 4125,9786 4164,9786 4202,7020 4241,9573 4279,7658 4318,5956 4356,9573 4395,7445 4433,4041 4472,9573 4510,6169 4549,9573 4587,9147 4626,9573 4664,8296 4703,10211 4741,7445 4780,9573 4818,9147 4857,7871 4895,6807 4934,9786 4972,7020 5011,9998 5049,7020 5088,9786 5126,9998 5165,9147 5203,9147 5242,8722 5280,7445 5319,9786 5357,8722 5396,7658 5434,9998 5473,8083 5511,7020 5550,7232 5588,8509 5627,6594 5665,7871 5704,6594 5742,7232 5781,8722 5819,9147 5858,7658 5896,7658 5935,5105 5973,8296 6012,7871 6050,8083 6089,7020 6127,6594 6166,4466 6204,8296 6243,9786 6281,9147 6320,7871 6358,6381 6397,9573 6435,8296 6474,6594 6512,9573 6551,7232 6589,6169 6628,8935 6666,9147 6705,6381 6743,8509 6782,9998 6820,5318 6859,8722 6897,5530 6936,6381 6974,8296 7013,7658 7051,8083 7090,6381 7128,7445 7167,7871 7205,5105 7244,9998 7282,7445 7321,6807 7359,8509 7398,7658 7436,9360 7475,7232 7513,5318 7552,8296 7590,7232 7629,8509 7667,9360 7706,7658 7744,9147 7783,8296 7821,7658 7860,8509 7898,8296 7937,5743 7975,6807 8014,5956 8052,8935 8091,8509 8129,8509 8168,6807 8206,5530 8245,9786 8283,5956 8322,8083 8360,4679 8399,7871 8437,9147 8476,8296 8514,7232 8553,7232 8591,5956 8630,9786 8668,4679 8707,6381 8745,7658 8784,8509 8822,7445 8861,8296 8899,9786 8938,8935 8976,8935 9015,7232 9053,6807 9092,9998 9130,9147 9169,6807 9207,9573 9246,7445 9284,9786 9323,8935 9361,9786 9400,5105 9438,8296 9477,5530 9515,9147 9554,8722 9592,7658 9631,9147 9669,8296 9708,7445 9746,9147 9785,5318 9823,8935 9862,7020 9900,8509 9939,6381 9977,7445 10016,5318 10054,5318 10093,8083 10131,7020 10170,7871 10208,8296 10247,9360 10285,5743 10324,7871 10362,4466 10401,6169 10439,8509 10478,5318 10516,8509 10555,8083 10593,8083 10632,8083 10670,7871 10709,6594 10747,7871 10786,5530 10824,7445 10863,4254 10901,7871 10940,8935 10978,6169 11017,5956 11055,8509 11094,8509 11132,9147 11171,6169 11209,6594 11248,8083 11286,6169 11325,6169 11363,5530 11402,8935 11440,8083 11479,8935 11517,7871 11556,7020 11594,8296 11633,9786 11671,7871 11710,6169 11748,9786 11787,6169 11825,7658 11864,8509 11902,8296 11941,9573 11979,7232 12018,6594 12056,7871 12095,6807 12133,9786 12172,7232 12210,6169 12249,8722 12287,8509 12326,9360 12364,8083 12403,6807 12441,7658 12480,6169 12518,6381 12557,7020 12595,9147 12634,8722 12672,9360 12711,6594 12749,6594 12788,5530 12826,8509 12865,6381 12903,5318 12942,8083 12980,8083 13019,8509 13057,5956 13096,8509 13134,7658 13173,7871 13211,4679 13250,9360 13288,8083 13327,8296 13365,6381 13404,8083 13442,5743 13481,8083 13519,8296 13558,6807 13596,9147 13635,8083 13673,9360 13712,7232 13750,7871 13789,6594 13827,9360 13866,8509 13904,8509 13943,7232 13981,6807 14020,9147 14058,9147 14097,7445 14135,7020 14174,7871 14212,9786 14251,5530 14289,6169 14328,8935 14366,9786 14405,8509 14443,7020 14482,10211 14520,8722 14559,7232 14597,9786 14636,6594 14674,6594 14713,9573 14751,7020 14790,10424 14828,9360 14867,9786 14905,9786 14944,8722 14982,6381 15021,7658 15059,7445 15098,9573 15136,5530 15175,9360 15213,8935 15252,8722 15290,8083 15329,6807 15367,9786 15406,9573 15444,9147 15483,9147 15521,6807 15560,8722 15598,7658 15637,8296 15675,8935 15714,9786 15752,4679 15791,7445 15829,8509 15868,8935 15906,6807 15945,5743 15983,8509 16022,9147 16060,8722 16099,6594 16137,8509 16176,7658 16214,6381 16253,7020 16291,8509 16330,8722 16368,4254 16407,8083 16445,4041 16484,8083 16522,7871 16561,7445 16599,9786 16638,4679 16676,3403 16715,8722 16753,2977 16792,7445 16830,8083 16869,7445 16907,7232 16946,7445 16984,5956 17023,8509 17061,8509 17100,5956 17138,9786 17177,8083 17215,7232 17254,9360 17292,8509 17331,4892 17369,7020 17408,8509 17446,9147 17485,7871 17523,10211 17562,8296 17600,5743 17639,7871 17677,9360 17716,9360 17754,7658 17793,9147 17831,5318 17870,9147 17908,10211 17947,9786 17985,8509 18024,10424 18062,8935 18101,8296 18139,6594 18178,7445 18216,9786 18255,9360 18293,5530 18332,8296 18370,7445 18409,9573 18447,8509 18486,7232 18524,8296 18563,2126 18601,7871 18640,7871 18678,7871 18717,2764 18755,8083 18794,9360 18832,2764 18871,8083 18909,5105 18948,8083 18986,9360 19025,7871 19063,9998 19102,8083 19140,9786 19179,9147 19217,7445 19256,8935 19294,5105 19333,8722 19371,8083 19410,7445 19448,9786 19487,8296 19525,7020 19564,10211 19602,9147 19641,7232 19679,9998 19718,6381 19756,9786 19795,9786 19833,8935 19872,9573 19910,6169 19949,9786 19987,7871 20026,8935 20064,9147 20103,9573 20141,7445 20180,9573 20218,8509 20257,6381 20295,8083 20334,8509 20372,5956 20411,1700 20449,9147 20488,8509 20526,9573 20565,8296 20603,9573 20642,7658 20680,4679 20719,7232 20757,3190 20796,5105 20834,6807 20873,5530 20911,5530 20950,6169 20988,7232 21027,5956 21065,6594 21104,6381 21142,9147 21181,7020 21219,6594 21258,6594 21296,8935 21335,7658 21373,6594 21412,7658 21450,6594 21489,5956 21527,8722 21566,8509 21604,7445 21643,4041 21681,7658 21720,9786 21758,4041 21797,8083 21835,4041 21874,6594 21912,9786 21951,4041 21989,8935 22028,8296 22066,9786 22105,8509 22143,6381 22182,5743 22220,9147 22259,6381 22297,8509 22336,7658 22374,6594 22413,7445 22451,6594 22490,6807 22528,6594 22567,6807 22605,6381 22644,6169 22682,5743 22721,3828 22759,6381 22798,6594 22836,4892 22875,6381 22913,4679 22952,6381 22990,6381 23029,4041 23067,6381 23106,2764 23144,6594 23183,2764 23221,5743 23260,4892 23298,3190 23337,4041 23375,4041 23414,4041 23452,4679 23491,5530 23529,5530 23568,6169 23606,5956 23645,6381 23683,6381 23722,7445 23760,6594 23799,7232 23837,6594 23876,6594 23914,6594 23953,3190 23991,7020 24030,5956 24068,6594 24107,6381 24145,6594 24184,6381 24222,6807 24261,4892 24299,4892 24338,2977 24376,2977 24415,4254 24453,4679 24492,7445 24530,5743 24569,4892 24607,7232 24646,6169 24684,7020 24723,5318 24761,5318"/>
<text text-anchor="start" x="200" y="13400" font-family="Verdana" font-size="500" fill="#000000" >Original Requests</text>
<text text-anchor="start" x="200" y="13900" font-family="Verdana" font-size="500" fill="#000000" >Requests</text>
<text text-anchor="start" x="200" y="14400" font-family="Verdana" font-size="500" fill="#000000" >Average</text>
<text text-anchor="start" x="200" y="14900" font-family="Verdana" font-size="500" fill="#000000" >Minimal</text>
<text text-anchor="start" x="200" y="15400" font-family="Verdana" font-size="500" fill="#000000" >Maximal</text>
<text text-anchor="start" x="200" y="15900" font-family="Verdana" font-size="500" fill="#000000" >Median</text>
<text text-anchor="start" x="200" y="16400" font-family="Verdana" font-size="500" fill="#000000" >90% line</text>
<text text-anchor="start" x="5200" y="13400" font-family="Verdana" font-size="500" fill="#000000" >600</text>
<text text-anchor="start" x="5200" y="13900" font-family="Verdana" font-size="500" fill="#000000" >600</text>
<text text-anchor="start" x="5200" y="14400" font-family="Verdana" font-size="500" fill="#000000" >19ms</text>
<text text-anchor="start" x="5200" y="14900" font-family="Verdana" font-size="500" fill="#000000" >6ms</text>
<text text-anchor="start" x="5200" y="15400" font-family="Verdana" font-size="500" fill="#000000" >47ms</text>
<text text-anchor="start" x="5200" y="15900" font-family="Verdana" font-size="500" fill="#000000" >18ms</text>
<text text-anchor="start" x="5200" y="16400" font-family="Verdana" font-size="500" fill="#000000" >30ms</text>
<text text-anchor="start" x="11200" y="13400" font-family="Verdana" font-size="500" fill="#000000" >Start timestamp</text>
<text text-anchor="start" x="11200" y="13900" font-family="Verdana" font-size="500" fill="#000000" >End timestamp</text>
<text text-anchor="start" x="11200" y="14400" font-family="Verdana" font-size="500" fill="#000000" >Run time</text>
<text text-anchor="start" x="16200" y="13400" font-family="Verdana" font-size="500" fill="#000000" >Wed Aug 05 11:59:48 UTC 2015</text>
<text text-anchor="start" x="16200" y="13900" font-family="Verdana" font-size="500" fill="#000000" >Wed Aug 05 11:59:49 UTC 2015</text>
<text text-anchor="start" x="16200" y="14400" font-family="Verdana" font-size="500" fill="#000000" >00:00:01</text>
<text text-anchor="start" x="16200" y="14900" font-family="Verdana" font-size="500" fill="#000000" >(hh:mm:ss)</text>
</svg>