<?xml version="1.0" encoding="UTF-8"?>
<svg width="160mm" height="90mm" viewBox="0 0 25000 16900" xmlns="http://www.w3.org/2000/svg" version="1.2" baseProfile="tiny" viewport-fill="red"> 
<rect x="0" y="0" width="100%" height="100%" fill="#dedede" stroke-width="0"/><text text-anchor="start" x="200" y="1050" font-family="Verdana" font-size="1050" fill="#000000" >Create talk</text>
<path fill="none" stroke="#000000" stroke-width="50" stroke-linejoin="round" d="M 1400,11500 L 24800,11500"/>
<text text-anchor="end" x="1250" y="11578" font-family="Verdana" font-size="315" fill="#000000" >0</text>
<path fill="none" stroke="#000000" stroke-width="50" stroke-linejoin="round" d="M 1400,10555 L 24800,10555"/>
<text text-anchor="end" x="1250" y="10633" font-family="Verdana" font-size="315" fill="#000000" >10</text>
<path fill="none" stroke="#000000" stroke-width="50" stroke-linejoin="round" d="M 1400,9610 L 24800,9610"/>
<text text-anchor="end" x="1250" y="9688" font-family="Verdana" font-size="315" fill="#000000" >20</text>
<path fill="none" stroke="#000000" stroke-width="50" stroke-linejoin="round" d="M 1400,8664 L 24800,8664"/>
<text text-anchor="end" x="1250" y="8742" font-family="Verdana" font-size="315" fill="#000000" >30</text>
<path fill="none" stroke="#000000" stroke-width="50" stroke-linejoin="round" d="M 1400,7719 L 24800,7719"/>
<text text-anchor="end" x="1250" y="7797" font-family="Verdana" font-size="315" fill="#000000" >40</text>
<path fill="none" stroke="#000000" stroke-width="50" stroke-linejoin="round" d="M 1400,6773 L 24800,6773"/>
<text text-anchor="end" x="1250" y="6851" font-family="Verdana" font-size="315" fill="#000000" >50</text>
<path fill="none" stroke="#000000" stroke-width="50" stroke-linejoin="round" d="M 1400,5828 L 24800,5828"/>
<text text-anchor="end" x="1250" y="5906" font-family="Verdana" font-size="315" fill="#000000" >60</text>
<path fill="none" stroke="#000000" stroke-width="50" stroke-linejoin="round" d="M 1400,4882 L 24800,4882"/>
<text text-anchor="end" x="1250" y="4960" font-family="Verdana" font-size="315" fill="#000000" >70</text>
<path fill="none" stroke="#000000" stroke-width="50" stroke-linejoin="round" d="M 1400,3937 L 24800,3937"/>
<text text-anchor="end" x="1250" y="4015" font-family="Verdana" font-size="315" fill="#000000" >80</text>
<path fill="none" stroke="#000000" stroke-width="50" stroke-linejoin="round" d="M 1400,2991 L 24800,2991"/>
<text text-anchor="end" x="1250" y="3069" font-family="Verdana" font-size="315" fill="#000000" >90</text>
<path fill="none" stroke="#000000" stroke-width="50" stroke-linejoin="round" d="M 1400,2046 L 24800,2046"/>
<text text-anchor="end" x="1250" y="2124" font-family="Verdana" font-size="315" fill="#000000" >100</text>
<path fill="none" stroke="#000000" stroke-width="50" stroke-linejoin="round" d="M 1700,1700 L 1700,12000"/>
<text text-anchor="middle" x="1700" y="12450" font-family="Verdana" font-size="315" fill="#000000" >59:42:264</text>
<path fill="none" stroke="#000000" stroke-width="50" stroke-linejoin="round" d="M 1700,11250 L 1700,12000"/>
<text text-anchor="middle" x="6360" y="12450" font-family="Verdana" font-size="315" fill="#000000" >59:42:574</text>
<path fill="none" stroke="#000000" stroke-width="50" stroke-linejoin="round" d="M 6360,11250 L 6360,12000"/>
<text text-anchor="middle" x="11020" y="12450" font-family="Verdana" font-size="315" fill="#000000" >59:42:862</text>
<path fill="none" stroke="#000000" stroke-width="50" stroke-linejoin="round" d="M 11020,11250 L 11020,12000"/>
<text text-anchor="middle" x="15680" y="12450" font-family="Verdana" font-size="315" fill="#000000" >59:43:94</text>
<path fill="none" stroke="#000000" stroke-width="50" stroke-linejoin="round" d="M 15680,11250 L 15680,12000"/>
<text text-anchor="middle" x="20340" y="12450" font-family="Verdana" font-size="315" fill="#000000" >59:43:363</text>
<path fill="none" stroke="#000000" stroke-width="50" stroke-linejoin="round" d="M 20340,11250 L 20340,12000"/>
<path fill="none" stroke="#004586" stroke-width="80" stroke-linejoin="round" d="M 1700,6442 L 2085,6269 2470,6097 2855,9287 3240,8166 3625,9545 4010,7994 4395,4459 4780,8080 5165,7304 5550,7649 5935,8511 6320,9373 6705,10838 7090,10321 7475,9545 7860,7304 8245,1700 8630,7390 9015,9373 9400,9459 9785,4632 10170,7821 10555,6873 10940,6183 11325,8511 11710,8425 12095,8856 12480,7821 12865,7994 13250,5407 13635,8511 14020,5321 14405,8166 14790,7390 15175,7907 15560,7390 15945,8252 16330,7132 16715,5235 17100,8080 17485,7304 17870,7649 18255,7045 18640,7304 19025,8252 19410,8252 19795,7994 20180,7132 20565,8683 20950,8511 21335,9373 21720,9632 22105,8166 22490,5838 22875,9718 23260,9028 23645,9890 24030,7132 24415,10321"/>
<text text-anchor="start" x="200" y="13400" font-family="Verdana" font-size="500" fill="#000000" >Original Requests</text>
<text text-anchor="start" x="200" y="13900" font-family="Verdana" font-size="500" fill="#000000" >Requests</text>
<text text-anchor="start" x="200" y="14400" font-family="Verdana" font-size="500" fill="#000000" >Average</text>
<text text-anchor="start" x="200" y="14900" font-family="Verdana" font-size="500" fill="#000000" >Minimal</text>
<text text-anchor="start" x="200" y="15400" font-family="Verdana" font-size="500" fill="#000000" >Maximal</text>
<text text-anchor="start" x="200" y="15900" font-family="Verdana" font-size="500" fill="#000000" >Median</text>
<text text-anchor="start" x="200" y="16400" font-family="Verdana" font-size="500" fill="#000000" >90% line</text>
<text text-anchor="start" x="5200" y="13400" font-family="Verdana" font-size="500" fill="#000000" >60</text>
<text text-anchor="start" x="5200" y="13900" font-family="Verdana" font-size="500" fill="#000000" >60</text>
<text text-anchor="start" x="5200" y="14400" font-family="Verdana" font-size="500" fill="#000000" >45ms</text>
<text text-anchor="start" x="5200" y="14900" font-family="Verdana" font-size="500" fill="#000000" >10ms</text>
<text text-anchor="start" x="5200" y="15400" font-family="Verdana" font-size="500" fill="#000000" >116ms</text>
<text text-anchor="start" x="5200" y="15900" font-family="Verdana" font-size="500" fill="#000000" >43ms</text>
<text text-anchor="start" x="5200" y="16400" font-family="Verdana" font-size="500" fill="#000000" >73ms</text>
<text text-anchor="start" x="11200" y="13400" font-family="Verdana" font-size="500" fill="#000000" >Start timestamp</text>
<text text-anchor="start" x="11200" y="13900" font-family="Verdana" font-size="500" fill="#000000" >End timestamp</text>
<text text-anchor="start" x="11200" y="14400" font-family="Verdana" font-size="500" fill="#000000" >Run time</text>
<text text-anchor="start" x="16200" y="13400" font-family="Verdana" font-size="500" fill="#000000" >Wed Aug 05 11:59:42 UTC 2015</text>
<text text-anchor="start" x="16200" y="13900" font-family="Verdana" font-size="500" fill="#000000" >Wed Aug 05 11:59:43 UTC 2015</text>
<text text-anchor="start" x="16200" y="14400" font-family="Verdana" font-size="500" fill="#000000" >00:00:01</text>
<text text-anchor="start" x="16200" y="14900" font-family="Verdana" font-size="500" fill="#000000" >(hh:mm:ss)</text>
</svg>