<?xml version="1.0" encoding="UTF-8"?>
<svg width="160mm" height="90mm" viewBox="0 0 25000 16900" xmlns="http://www.w3.org/2000/svg" version="1.2" baseProfile="tiny" viewport-fill="red"> 
<rect x="0" y="0" width="100%" height="100%" fill="#dedede" stroke-width="0"/><text text-anchor="start" x="200" y="1050" font-family="Verdana" font-size="1050" fill="#000000" >Create LinkedList Element - node</text>
<path fill="none" stroke="#000000" stroke-width="50" stroke-linejoin="round" d="M 1400,11500 L 24800,11500"/>
<text text-anchor="end" x="1250" y="11578" font-family="Verdana" font-size="315" fill="#000000" >0</text>
<path fill="none" stroke="#000000" stroke-width="50" stroke-linejoin="round" d="M 1400,10555 L 24800,10555"/>
<text text-anchor="end" x="1250" y="10633" font-family="Verdana" font-size="315" fill="#000000" >5</text>
<path fill="none" stroke="#000000" stroke-width="50" stroke-linejoin="round" d="M 1400,9610 L 24800,9610"/>
<text text-anchor="end" x="1250" y="9688" font-family="Verdana" font-size="315" fill="#000000" >10</text>
<path fill="none" stroke="#000000" stroke-width="50" stroke-linejoin="round" d="M 1400,8664 L 24800,8664"/>
<text text-anchor="end" x="1250" y="8742" font-family="Verdana" font-size="315" fill="#000000" >15</text>
<path fill="none" stroke="#000000" stroke-width="50" stroke-linejoin="round" d="M 1400,7719 L 24800,7719"/>
<text text-anchor="end" x="1250" y="7797" font-family="Verdana" font-size="315" fill="#000000" >20</text>
<path fill="none" stroke="#000000" stroke-width="50" stroke-linejoin="round" d="M 1400,6773 L 24800,6773"/>
<text text-anchor="end" x="1250" y="6851" font-family="Verdana" font-size="315" fill="#000000" >25</text>
<path fill="none" stroke="#000000" stroke-width="50" stroke-linejoin="round" d="M 1400,5828 L 24800,5828"/>
<text text-anchor="end" x="1250" y="5906" font-family="Verdana" font-size="315" fill="#000000" >30</text>
<path fill="none" stroke="#000000" stroke-width="50" stroke-linejoin="round" d="M 1400,4882 L 24800,4882"/>
<text text-anchor="end" x="1250" y="4960" font-family="Verdana" font-size="315" fill="#000000" >35</text>
<path fill="none" stroke="#000000" stroke-width="50" stroke-linejoin="round" d="M 1400,3937 L 24800,3937"/>
<text text-anchor="end" x="1250" y="4015" font-family="Verdana" font-size="315" fill="#000000" >40</text>
<path fill="none" stroke="#000000" stroke-width="50" stroke-linejoin="round" d="M 1400,2991 L 24800,2991"/>
<text text-anchor="end" x="1250" y="3069" font-family="Verdana" font-size="315" fill="#000000" >45</text>
<path fill="none" stroke="#000000" stroke-width="50" stroke-linejoin="round" d="M 1400,2046 L 24800,2046"/>
<text text-anchor="end" x="1250" y="2124" font-family="Verdana" font-size="315" fill="#000000" >50</text>
<path fill="none" stroke="#000000" stroke-width="50" stroke-linejoin="round" d="M 1700,1700 L 1700,12000"/>
<text text-anchor="middle" x="1700" y="12450" font-family="Verdana" font-size="315" fill="#000000" >59:46:660</text>
<path fill="none" stroke="#000000" stroke-width="50" stroke-linejoin="round" d="M 1700,11250 L 1700,12000"/>
<text text-anchor="middle" x="6360" y="12450" font-family="Verdana" font-size="315" fill="#000000" >59:47:190</text>
<path fill="none" stroke="#000000" stroke-width="50" stroke-linejoin="round" d="M 6360,11250 L 6360,12000"/>
<text text-anchor="middle" x="11020" y="12450" font-family="Verdana" font-size="315" fill="#000000" >59:47:543</text>
<path fill="none" stroke="#000000" stroke-width="50" stroke-linejoin="round" d="M 11020,11250 L 11020,12000"/>
<text text-anchor="middle" x="15680" y="12450" font-family="Verdana" font-size="315" fill="#000000" >59:47:907</text>
<path fill="none" stroke="#000000" stroke-width="50" stroke-linejoin="round" d="M 15680,11250 L 15680,12000"/>
<text text-anchor="middle" x="20340" y="12450" font-family="Verdana" font-size="315" fill="#000000" >59:48:263</text>
<path fill="none" stroke="#000000" stroke-width="50" stroke-linejoin="round" d="M 20340,11250 L 20340,12000"/>
<path fill="none" stroke="#004586" stroke-width="80" stroke-linejoin="round" d="M 1700,9915 L 1738,8843 1776,9379 1814,8486 1853,10272 1891,9200 1929,9736 1968,7593 2006,8486 2044,10093 2083,9915 2121,8308 2159,9558 2198,8129 2236,9022 2274,8308 2312,9915 2351,9022 2389,9200 2427,8843 2466,10093 2504,10450 2542,10272 2581,9379 2619,10093 2657,9379 2696,8665 2734,5629 2772,7593 2810,9022 2849,6522 2887,9379 2925,4558 2964,6700 3002,7593 3040,9736 3079,7593 3117,4379 3155,6165 3194,7950 3232,5629 3270,9915 3308,4022 3347,6343 3385,3665 3423,6879 3462,7950 3500,8486 3538,6522 3577,4558 3615,8308 3653,4915 3692,4558 3730,7415 3768,5093 3806,6879 3845,8308 3883,8843 3921,8665 3960,5450 3998,8308 4036,9022 4075,6165 4113,5272 4151,7950 4190,6343 4228,9379 4266,9200 4304,4915 4343,3308 4381,4558 4419,2950 4458,6700 4496,7593 4534,7593 4573,1700 4611,6343 4649,3843 4688,7415 4726,5450 4764,7950 4802,3486 4841,6343 4879,6522 4917,8486 4956,9558 4994,4200 5032,8129 5071,3486 5109,4379 5147,6700 5186,5450 5224,3129 5262,6343 5300,8843 5339,6165 5377,6522 5415,7950 5454,8665 5492,1879 5530,7772 5569,6879 5607,3665 5645,5093 5684,4736 5722,5629 5760,3129 5799,6522 5837,4379 5875,5093 5913,3843 5952,7236 5990,6700 6028,9379 6067,6700 6105,4379 6143,7415 6182,5450 6220,3665 6258,5093 6297,7415 6335,4558 6373,6522 6411,4379 6450,2950 6488,8129 6526,4915 6565,5629 6603,5272 6641,6343 6680,8129 6718,4200 6756,4915 6795,5986 6833,7415 6871,7772 6909,6879 6948,5272 6986,5272 7024,7415 7063,7950 7101,5808 7139,3308 7178,2772 7216,6343 7254,7772 7293,8843 7331,5272 7369,8308 7407,7950 7446,6165 7484,7593 7522,5093 7561,2950 7599,5450 7637,5093 7676,2950 7714,4379 7752,6343 7791,5450 7829,7593 7867,6700 7905,5986 7944,7236 7982,4736 8020,5450 8059,5808 8097,7236 8135,6522 8174,6165 8212,6879 8250,7950 8289,4200 8327,5629 8365,4022 8403,5629 8442,6522 8480,7415 8518,3308 8557,5629 8595,5629 8633,5272 8672,4200 8710,7058 8748,5629 8787,5629 8825,8486 8863,5272 8901,5093 8940,6879 8978,6700 9016,5093 9055,4022 9093,6522 9131,5450 9170,6522 9208,6522 9246,5093 9285,6879 9323,4022 9361,7593 9400,5272 9438,3129 9476,4915 9514,7058 9553,4736 9591,8308 9629,5629 9668,3308 9706,4915 9744,5272 9783,6522 9821,3665 9859,7415 9898,3129 9936,2772 9974,4379 10012,1879 10051,6700 10089,7772 10127,5808 10166,4915 10204,6522 10242,4022 10281,2236 10319,2950 10357,3843 10396,6879 10434,8129 10472,8843 10510,3665 10549,7772 10587,6343 10625,8129 10664,3308 10702,4022 10740,6700 10779,4022 10817,3843 10855,8129 10894,6879 10932,8308 10970,5986 11008,8129 11047,3486 11085,2950 11123,5093 11162,7593 11200,6522 11238,7772 11277,3843 11315,8665 11353,2772 11392,3665 11430,8129 11468,3843 11506,2058 11545,4379 11583,3129 11621,4200 11660,5272 11698,6879 11736,3129 11775,3665 11813,6700 11851,8129 11890,2950 11928,3843 11966,4915 12004,7772 12043,6522 12081,7236 12119,3308 12158,3308 12196,4200 12234,3129 12273,8129 12311,7415 12349,3129 12388,9200 12426,4379 12464,5272 12502,6700 12541,3129 12579,7772 12617,6700 12656,8486 12694,7950 12732,2950 12771,6879 12809,2058 12847,2236 12886,4022 12924,4915 12962,5986 13000,2415 13039,5986 13077,7772 13115,3129 13154,3308 13192,3129 13230,2415 13269,4915 13307,7950 13345,4736 13384,5986 13422,7058 13460,7593 13499,2950 13537,7593 13575,9200 13613,5272 13652,7772 13690,4022 13728,4915 13767,2950 13805,5629 13843,4200 13882,6700 13920,7058 13958,5986 13997,2415 14035,2950 14073,4200 14111,7950 14150,3129 14188,4200 14226,4200 14265,5272 14303,7236 14341,9915 14380,4558 14418,5808 14456,2236 14495,7415 14533,8308 14571,2058 14609,2593 14648,7772 14686,4558 14724,4200 14763,5450 14801,5808 14839,6879 14878,6522 14916,2236 14954,7593 14993,3843 15031,7236 15069,4736 15107,10093 15146,4736 15184,5093 15222,6343 15261,7058 15299,5808 15337,2950 15376,7415 15414,6879 15452,5093 15491,7950 15529,2950 15567,4379 15605,4379 15644,3486 15682,5450 15720,6879 15759,7236 15797,6522 15835,7950 15874,1879 15912,6700 15950,7415 15989,8308 16027,9379 16065,3129 16103,3843 16142,6700 16180,4736 16218,6343 16257,6165 16295,8129 16333,7236 16372,7772 16410,8129 16448,9558 16487,7950 16525,3665 16563,7950 16601,4915 16640,3486 16678,6700 16716,6522 16755,6165 16793,4915 16831,2950 16870,5629 16908,8486 16946,9200 16985,7593 17023,7772 17061,5808 17100,6700 17138,2772 17176,5450 17214,7058 17253,4558 17291,6522 17329,4558 17368,3308 17406,5986 17444,4558 17483,4379 17521,3129 17559,5450 17598,4736 17636,5629 17674,4736 17712,4558 17751,2593 17789,5450 17827,5272 17866,7950 17904,4200 17942,2236 17981,5272 18019,4379 18057,5986 18096,7058 18134,6522 18172,2415 18210,7593 18249,3308 18287,5093 18325,7058 18364,8665 18402,8665 18440,7950 18479,3843 18517,3665 18555,4558 18594,4558 18632,7772 18670,2772 18708,4022 18747,3843 18785,8308 18823,7236 18862,7593 18900,8308 18938,5986 18977,5093 19015,6165 19053,3129 19092,6700 19130,7593 19168,7950 19206,3843 19245,6879 19283,7415 19321,3843 19360,5093 19398,4736 19436,5093 19475,5808 19513,4558 19551,4558 19590,7058 19628,6700 19666,8665 19704,7236 19743,5808 19781,4736 19819,5093 19858,5808 19896,6879 19934,7058 19973,3308 20011,6165 20049,6879 20088,6700 20126,6700 20164,3665 20202,4915 20241,6165 20279,5450 20317,4558 20356,4022 20394,8308 20432,4915 20471,4915 20509,3665 20547,5986 20586,7772 20624,6165 20662,7415 20700,8129 20739,6879 20777,2950 20815,4558 20854,3486 20892,6165 20930,5629 20969,8129 21007,7772 21045,3486 21084,3665 21122,5629 21160,2772 21199,7058 21237,4915 21275,9022 21313,7593 21352,6879 21390,7593 21428,9558 21467,9379 21505,2772 21543,6343 21582,7415 21620,6700 21658,8486 21697,8129 21735,2415 21773,6522 21811,6700 21850,8486 21888,2593 21926,5808 21965,3308 22003,6343 22041,7593 22080,8129 22118,7236 22156,8308 22195,3486 22233,7772 22271,5272 22309,7950 22348,5629 22386,8308 22424,4022 22463,8129 22501,5450 22539,6879 22578,8486 22616,4379 22654,5450 22693,8308 22731,6165 22769,7950 22807,5808 22846,7415 22884,4915 22922,9736 22961,9736 22999,5629 23037,6165 23076,7058 23114,8129 23152,5272 23191,6879 23229,4915 23267,7415 23305,7415 23344,9022 23382,8308 23420,6700 23459,8129 23497,8129 23535,7236 23574,5986 23612,8129 23650,6343 23689,5986 23727,7593 23765,6879 23803,6700 23842,8665 23880,5450 23918,7236 23957,9736 23995,5986 24033,8665 24072,3308 24110,4379 24148,4022 24187,3843 24225,6700 24263,8665 24301,7593 24340,7950 24378,8308 24416,7772 24455,9736 24493,8665 24531,9379 24570,9022 24608,10093 24646,9736 24685,9736 24723,9736 24761,9736"/>
<text text-anchor="start" x="200" y="13400" font-family="Verdana" font-size="500" fill="#000000" >Original Requests</text>
<text text-anchor="start" x="200" y="13900" font-family="Verdana" font-size="500" fill="#000000" >Requests</text>
<text text-anchor="start" x="200" y="14400" font-family="Verdana" font-size="500" fill="#000000" >Average</text>
<text text-anchor="start" x="200" y="14900" font-family="Verdana" font-size="500" fill="#000000" >Minimal</text>
<text text-anchor="start" x="200" y="15400" font-family="Verdana" font-size="500" fill="#000000" >Maximal</text>
<text text-anchor="start" x="200" y="15900" font-family="Verdana" font-size="500" fill="#000000" >Median</text>
<text text-anchor="start" x="200" y="16400" font-family="Verdana" font-size="500" fill="#000000" >90% line</text>
<text text-anchor="start" x="5200" y="13400" font-family="Verdana" font-size="500" fill="#000000" >603</text>
<text text-anchor="start" x="5200" y="13900" font-family="Verdana" font-size="500" fill="#000000" >603</text>
<text text-anchor="start" x="5200" y="14400" font-family="Verdana" font-size="500" fill="#000000" >31ms</text>
<text text-anchor="start" x="5200" y="14900" font-family="Verdana" font-size="500" fill="#000000" >7ms</text>
<text text-anchor="start" x="5200" y="15400" font-family="Verdana" font-size="500" fill="#000000" >56ms</text>
<text text-anchor="start" x="5200" y="15900" font-family="Verdana" font-size="500" fill="#000000" >30ms</text>
<text text-anchor="start" x="5200" y="16400" font-family="Verdana" font-size="500" fill="#000000" >47ms</text>
<text text-anchor="start" x="11200" y="13400" font-family="Verdana" font-size="500" fill="#000000" >Start timestamp</text>
<text text-anchor="start" x="11200" y="13900" font-family="Verdana" font-size="500" fill="#000000" >End timestamp</text>
<text text-anchor="start" x="11200" y="14400" font-family="Verdana" font-size="500" fill="#000000" >Run time</text>
<text text-anchor="start" x="16200" y="13400" font-family="Verdana" font-size="500" fill="#000000" >Wed Aug 05 11:59:46 UTC 2015</text>
<text text-anchor="start" x="16200" y="13900" font-family="Verdana" font-size="500" fill="#000000" >Wed Aug 05 11:59:48 UTC 2015</text>
<text text-anchor="start" x="16200" y="14400" font-family="Verdana" font-size="500" fill="#000000" >00:00:02</text>
<text text-anchor="start" x="16200" y="14900" font-family="Verdana" font-size="500" fill="#000000" >(hh:mm:ss)</text>
</svg>