<?xml version="1.0" encoding="UTF-8"?>
<svg width="160mm" height="90mm" viewBox="0 0 25000 16900" xmlns="http://www.w3.org/2000/svg" version="1.2" baseProfile="tiny" viewport-fill="red"> 
<rect x="0" y="0" width="100%" height="100%" fill="#dedede" stroke-width="0"/><text text-anchor="start" x="200" y="1050" font-family="Verdana" font-size="1050" fill="#000000" >Create stuff</text>
<path fill="none" stroke="#000000" stroke-width="50" stroke-linejoin="round" d="M 1400,11500 L 24800,11500"/>
<text text-anchor="end" x="1250" y="11566" font-family="Verdana" font-size="266" fill="#000000" >0</text>
<path fill="none" stroke="#000000" stroke-width="50" stroke-linejoin="round" d="M 1400,10700 L 24800,10700"/>
<text text-anchor="end" x="1250" y="10766" font-family="Verdana" font-size="266" fill="#000000" >10</text>
<path fill="none" stroke="#000000" stroke-width="50" stroke-linejoin="round" d="M 1400,9900 L 24800,9900"/>
<text text-anchor="end" x="1250" y="9966" font-family="Verdana" font-size="266" fill="#000000" >20</text>
<path fill="none" stroke="#000000" stroke-width="50" stroke-linejoin="round" d="M 1400,9100 L 24800,9100"/>
<text text-anchor="end" x="1250" y="9166" font-family="Verdana" font-size="266" fill="#000000" >30</text>
<path fill="none" stroke="#000000" stroke-width="50" stroke-linejoin="round" d="M 1400,8300 L 24800,8300"/>
<text text-anchor="end" x="1250" y="8366" font-family="Verdana" font-size="266" fill="#000000" >40</text>
<path fill="none" stroke="#000000" stroke-width="50" stroke-linejoin="round" d="M 1400,7500 L 24800,7500"/>
<text text-anchor="end" x="1250" y="7566" font-family="Verdana" font-size="266" fill="#000000" >50</text>
<path fill="none" stroke="#000000" stroke-width="50" stroke-linejoin="round" d="M 1400,6700 L 24800,6700"/>
<text text-anchor="end" x="1250" y="6766" font-family="Verdana" font-size="266" fill="#000000" >60</text>
<path fill="none" stroke="#000000" stroke-width="50" stroke-linejoin="round" d="M 1400,5900 L 24800,5900"/>
<text text-anchor="end" x="1250" y="5966" font-family="Verdana" font-size="266" fill="#000000" >70</text>
<path fill="none" stroke="#000000" stroke-width="50" stroke-linejoin="round" d="M 1400,5100 L 24800,5100"/>
<text text-anchor="end" x="1250" y="5166" font-family="Verdana" font-size="266" fill="#000000" >80</text>
<path fill="none" stroke="#000000" stroke-width="50" stroke-linejoin="round" d="M 1400,4300 L 24800,4300"/>
<text text-anchor="end" x="1250" y="4366" font-family="Verdana" font-size="266" fill="#000000" >90</text>
<path fill="none" stroke="#000000" stroke-width="50" stroke-linejoin="round" d="M 1400,3500 L 24800,3500"/>
<text text-anchor="end" x="1250" y="3566" font-family="Verdana" font-size="266" fill="#000000" >100</text>
<path fill="none" stroke="#000000" stroke-width="50" stroke-linejoin="round" d="M 1400,2700 L 24800,2700"/>
<text text-anchor="end" x="1250" y="2766" font-family="Verdana" font-size="266" fill="#000000" >110</text>
<path fill="none" stroke="#000000" stroke-width="50" stroke-linejoin="round" d="M 1400,1900 L 24800,1900"/>
<text text-anchor="end" x="1250" y="1966" font-family="Verdana" font-size="266" fill="#000000" >120</text>
<path fill="none" stroke="#000000" stroke-width="50" stroke-linejoin="round" d="M 1700,1700 L 1700,12000"/>
<text text-anchor="middle" x="1700" y="12450" font-family="Verdana" font-size="266" fill="#000000" >59:39:476</text>
<path fill="none" stroke="#000000" stroke-width="50" stroke-linejoin="round" d="M 1700,11250 L 1700,12000"/>
<text text-anchor="middle" x="6360" y="12450" font-family="Verdana" font-size="266" fill="#000000" >59:39:560</text>
<path fill="none" stroke="#000000" stroke-width="50" stroke-linejoin="round" d="M 6360,11250 L 6360,12000"/>
<text text-anchor="middle" x="11020" y="12450" font-family="Verdana" font-size="266" fill="#000000" >59:39:794</text>
<path fill="none" stroke="#000000" stroke-width="50" stroke-linejoin="round" d="M 11020,11250 L 11020,12000"/>
<text text-anchor="middle" x="15680" y="12450" font-family="Verdana" font-size="266" fill="#000000" >59:39:876</text>
<path fill="none" stroke="#000000" stroke-width="50" stroke-linejoin="round" d="M 15680,11250 L 15680,12000"/>
<text text-anchor="middle" x="20340" y="12450" font-family="Verdana" font-size="266" fill="#000000" >59:40:9</text>
<path fill="none" stroke="#000000" stroke-width="50" stroke-linejoin="round" d="M 20340,11250 L 20340,12000"/>
<path fill="none" stroke="#004586" stroke-width="80" stroke-linejoin="round" d="M 1700,9348 L 1948,8171 2196,8024 2445,9127 2693,8980 2941,8539 3190,8318 3438,8392 3687,8098 3935,5965 4183,5892 4432,6112 4680,6186 4929,5965 5177,5377 5425,5598 5674,9642 5922,6186 6170,8171 6419,6112 6667,5745 6916,5965 7164,6921 7412,7583 7661,7730 7909,7289 8158,8539 8406,7950 8654,8686 8903,9642 9151,9862 9400,9200 9648,6700 9896,10303 10145,4421 10393,1700 10641,10009 10890,5818 11138,10818 11387,10156 11635,5377 11883,5671 12132,6259 12380,8686 12629,6039 12877,9127 13125,7583 13374,6333 13622,10671 13870,10083 14119,9642 14367,7803 14616,7289 14864,9862 15112,9127 15361,8392 15609,9715 15858,7950 16106,7877 16354,8759 16603,10598 16851,8465 17100,6259 17348,5818 17596,5598 17845,8098 18093,7730 18341,6406 18590,8024 18838,7803 19087,8833 19335,9274 19583,7509 19832,7877 20080,6480 20329,8245 20577,8759 20825,6700 21074,8833 21322,8686 21570,6627 21819,7289 22067,8759 22316,7803 22564,9053 22812,8759 23061,8612 23309,7656 23558,8098 23806,8539 24054,9862 24303,9936 24551,10303"/>
<text text-anchor="start" x="200" y="13400" font-family="Verdana" font-size="500" fill="#000000" >Original Requests</text>
<text text-anchor="start" x="200" y="13900" font-family="Verdana" font-size="500" fill="#000000" >Requests</text>
<text text-anchor="start" x="200" y="14400" font-family="Verdana" font-size="500" fill="#000000" >Average</text>
<text text-anchor="start" x="200" y="14900" font-family="Verdana" font-size="500" fill="#000000" >Minimal</text>
<text text-anchor="start" x="200" y="15400" font-family="Verdana" font-size="500" fill="#000000" >Maximal</text>
<text text-anchor="start" x="200" y="15900" font-family="Verdana" font-size="500" fill="#000000" >Median</text>
<text text-anchor="start" x="200" y="16400" font-family="Verdana" font-size="500" fill="#000000" >90% line</text>
<text text-anchor="start" x="5200" y="13400" font-family="Verdana" font-size="500" fill="#000000" >93</text>
<text text-anchor="start" x="5200" y="13900" font-family="Verdana" font-size="500" fill="#000000" >93</text>
<text text-anchor="start" x="5200" y="14400" font-family="Verdana" font-size="500" fill="#000000" >51ms</text>
<text text-anchor="start" x="5200" y="14900" font-family="Verdana" font-size="500" fill="#000000" >12ms</text>
<text text-anchor="start" x="5200" y="15400" font-family="Verdana" font-size="500" fill="#000000" >136ms</text>
<text text-anchor="start" x="5200" y="15900" font-family="Verdana" font-size="500" fill="#000000" >49ms</text>
<text text-anchor="start" x="5200" y="16400" font-family="Verdana" font-size="500" fill="#000000" >80ms</text>
<text text-anchor="start" x="11200" y="13400" font-family="Verdana" font-size="500" fill="#000000" >Start timestamp</text>
<text text-anchor="start" x="11200" y="13900" font-family="Verdana" font-size="500" fill="#000000" >End timestamp</text>
<text text-anchor="start" x="11200" y="14400" font-family="Verdana" font-size="500" fill="#000000" >Run time</text>
<text text-anchor="start" x="16200" y="13400" font-family="Verdana" font-size="500" fill="#000000" >Wed Aug 05 11:59:39 UTC 2015</text>
<text text-anchor="start" x="16200" y="13900" font-family="Verdana" font-size="500" fill="#000000" >Wed Aug 05 11:59:40 UTC 2015</text>
<text text-anchor="start" x="16200" y="14400" font-family="Verdana" font-size="500" fill="#000000" >00:00:00</text>
<text text-anchor="start" x="16200" y="14900" font-family="Verdana" font-size="500" fill="#000000" >(hh:mm:ss)</text>
</svg>