<?xml version="1.0" encoding="UTF-8"?>
<svg width="160mm" height="90mm" viewBox="0 0 25000 16900" xmlns="http://www.w3.org/2000/svg" version="1.2" baseProfile="tiny" viewport-fill="red"> 
<rect x="0" y="0" width="100%" height="100%" fill="#dedede" stroke-width="0"/><text text-anchor="start" x="200" y="1050" font-family="Verdana" font-size="1050" fill="#000000" >Erstelle wsi</text>
<path fill="none" stroke="#000000" stroke-width="50" stroke-linejoin="round" d="M 1400,11500 L 24800,11500"/>
<text text-anchor="end" x="1250" y="11586" font-family="Verdana" font-size="346" fill="#000000" >0</text>
<path fill="none" stroke="#000000" stroke-width="50" stroke-linejoin="round" d="M 1400,10460 L 24800,10460"/>
<text text-anchor="end" x="1250" y="10546" font-family="Verdana" font-size="346" fill="#000000" >5</text>
<path fill="none" stroke="#000000" stroke-width="50" stroke-linejoin="round" d="M 1400,9420 L 24800,9420"/>
<text text-anchor="end" x="1250" y="9506" font-family="Verdana" font-size="346" fill="#000000" >10</text>
<path fill="none" stroke="#000000" stroke-width="50" stroke-linejoin="round" d="M 1400,8380 L 24800,8380"/>
<text text-anchor="end" x="1250" y="8466" font-family="Verdana" font-size="346" fill="#000000" >15</text>
<path fill="none" stroke="#000000" stroke-width="50" stroke-linejoin="round" d="M 1400,7340 L 24800,7340"/>
<text text-anchor="end" x="1250" y="7426" font-family="Verdana" font-size="346" fill="#000000" >20</text>
<path fill="none" stroke="#000000" stroke-width="50" stroke-linejoin="round" d="M 1400,6300 L 24800,6300"/>
<text text-anchor="end" x="1250" y="6386" font-family="Verdana" font-size="346" fill="#000000" >25</text>
<path fill="none" stroke="#000000" stroke-width="50" stroke-linejoin="round" d="M 1400,5260 L 24800,5260"/>
<text text-anchor="end" x="1250" y="5346" font-family="Verdana" font-size="346" fill="#000000" >30</text>
<path fill="none" stroke="#000000" stroke-width="50" stroke-linejoin="round" d="M 1400,4220 L 24800,4220"/>
<text text-anchor="end" x="1250" y="4306" font-family="Verdana" font-size="346" fill="#000000" >35</text>
<path fill="none" stroke="#000000" stroke-width="50" stroke-linejoin="round" d="M 1400,3180 L 24800,3180"/>
<text text-anchor="end" x="1250" y="3266" font-family="Verdana" font-size="346" fill="#000000" >40</text>
<path fill="none" stroke="#000000" stroke-width="50" stroke-linejoin="round" d="M 1400,2140 L 24800,2140"/>
<text text-anchor="end" x="1250" y="2226" font-family="Verdana" font-size="346" fill="#000000" >45</text>
<path fill="none" stroke="#000000" stroke-width="50" stroke-linejoin="round" d="M 1700,1700 L 1700,12000"/>
<text text-anchor="middle" x="1700" y="12450" font-family="Verdana" font-size="346" fill="#000000" >59:43:853</text>
<path fill="none" stroke="#000000" stroke-width="50" stroke-linejoin="round" d="M 1700,11250 L 1700,12000"/>
<text text-anchor="middle" x="6360" y="12450" font-family="Verdana" font-size="346" fill="#000000" >59:44:586</text>
<path fill="none" stroke="#000000" stroke-width="50" stroke-linejoin="round" d="M 6360,11250 L 6360,12000"/>
<text text-anchor="middle" x="11020" y="12450" font-family="Verdana" font-size="346" fill="#000000" >59:44:977</text>
<path fill="none" stroke="#000000" stroke-width="50" stroke-linejoin="round" d="M 11020,11250 L 11020,12000"/>
<text text-anchor="middle" x="15680" y="12450" font-family="Verdana" font-size="346" fill="#000000" >59:45:309</text>
<path fill="none" stroke="#000000" stroke-width="50" stroke-linejoin="round" d="M 15680,11250 L 15680,12000"/>
<text text-anchor="middle" x="20340" y="12450" font-family="Verdana" font-size="346" fill="#000000" >59:45:725</text>
<path fill="none" stroke="#000000" stroke-width="50" stroke-linejoin="round" d="M 20340,11250 L 20340,12000"/>
<path fill="none" stroke="#004586" stroke-width="80" stroke-linejoin="round" d="M 1700,10100 L 1764,9700 1828,9500 1892,9900 1956,9100 2020,9500 2085,8900 2149,7900 2213,9900 2277,9900 2341,10100 2405,10300 2470,10100 2534,8100 2598,9700 2662,9900 2726,7500 2790,9900 2855,9900 2919,9100 2983,8900 3047,9900 3111,9900 3175,9300 3240,8900 3304,9500 3368,9900 3432,9500 3496,9500 3560,9500 3625,8500 3689,8300 3753,8700 3817,9300 3881,8900 3945,10100 4010,9700 4074,9100 4138,9300 4202,9300 4266,8900 4330,8300 4395,9300 4459,8300 4523,9300 4587,5900 4651,6100 4715,8900 4780,9100 4844,9700 4908,9700 4972,9700 5036,9700 5100,9300 5165,8500 5229,3900 5293,7300 5357,8100 5421,4700 5485,10300 5550,6300 5614,7500 5678,9700 5742,9700 5806,6300 5870,8500 5935,6500 5999,8900 6063,8300 6127,9100 6191,6300 6255,6300 6320,4700 6384,9300 6448,7300 6512,2900 6576,10100 6640,5900 6705,5500 6769,7900 6833,5500 6897,5500 6961,6500 7025,6900 7090,5500 7154,5700 7218,5700 7282,7300 7346,8700 7410,7900 7475,6500 7539,5500 7603,7700 7667,6500 7731,7700 7795,7300 7860,2100 7924,9700 7988,7100 8052,4700 8116,6300 8180,5700 8245,5100 8309,2300 8373,8500 8437,1700 8501,4900 8565,7500 8630,6900 8694,6100 8758,2300 8822,8300 8886,6700 8950,8700 9015,8900 9079,6100 9143,5500 9207,8900 9271,4300 9335,8500 9400,8300 9464,5700 9528,5300 9592,10100 9656,10300 9720,3900 9785,8500 9849,7900 9913,10100 9977,5100 10041,6300 10105,5700 10170,9500 10234,8900 10298,5900 10362,8100 10426,7700 10490,4500 10555,7300 10619,6900 10683,8900 10747,8700 10811,9100 10875,4700 10940,5500 11004,6500 11068,8100 11132,6300 11196,7900 11260,5900 11325,9700 11389,7900 11453,3300 11517,10300 11581,6300 11645,5700 11710,4900 11774,4300 11838,8300 11902,4900 11966,5700 12030,8900 12095,8700 12159,8500 12223,5100 12287,5300 12351,6700 12415,8100 12480,7100 12544,2900 12608,8500 12672,8100 12736,4100 12800,6700 12865,8300 12929,6500 12993,8300 13057,7100 13121,9900 13185,5900 13250,7700 13314,9100 13378,8100 13442,6100 13506,8100 13570,9300 13635,3900 13699,9300 13763,9100 13827,5900 13891,8300 13955,8100 14020,5300 14084,9500 14148,6300 14212,9500 14276,6300 14340,4900 14405,9500 14469,6500 14533,8100 14597,6900 14661,8100 14725,7500 14790,8500 14854,7100 14918,8500 14982,8300 15046,7900 15110,6900 15175,7700 15239,4300 15303,6500 15367,7500 15431,6300 15495,5500 15560,3700 15624,8100 15688,7900 15752,7100 15816,5500 15880,3700 15945,8100 16009,6900 16073,8900 16137,3700 16201,9100 16265,8700 16330,8500 16394,8300 16458,5900 16522,7100 16586,8900 16650,9100 16715,8100 16779,9700 16843,8900 16907,6700 16971,8300 17035,8700 17100,5300 17164,8700 17228,7700 17292,7700 17356,8700 17420,6300 17485,6500 17549,7500 17613,8900 17677,6500 17741,6700 17805,10100 17870,7100 17934,9900 17998,9100 18062,8500 18126,9700 18190,7300 18255,9100 18319,9100 18383,7700 18447,8300 18511,9500 18575,8500 18640,10100 18704,10100 18768,9300 18832,8500 18896,9100 18960,5100 19025,9300 19089,9300 19153,9700 19217,8900 19281,9700 19345,6700 19410,6900 19474,9300 19538,9700 19602,7700 19666,9300 19730,7300 19795,8500 19859,9900 19923,9500 19987,6900 20051,9300 20115,8500 20180,8300 20244,9300 20308,7700 20372,10100 20436,9700 20500,8300 20565,6300 20629,9500 20693,7500 20757,8500 20821,9900 20885,9100 20950,9300 21014,9300 21078,8900 21142,9100 21206,7700 21270,8300 21335,9700 21399,8900 21463,9700 21527,7100 21591,9100 21655,9700 21720,8900 21784,5700 21848,8100 21912,8900 21976,10100 22040,7300 22105,9700 22169,9300 22233,7700 22297,9500 22361,8300 22425,10100 22490,7500 22554,6900 22618,9900 22682,9300 22746,8500 22810,7500 22875,9300 22939,9500 23003,10100 23067,9100 23131,9900 23195,7300 23260,10300 23324,7100 23388,8900 23452,9700 23516,9100 23580,9100 23645,8500 23709,10100 23773,9700 23837,8100 23901,9100 23965,8700 24030,10100 24094,10100 24158,9700 24222,10100 24286,9700 24350,9700 24415,9300 24479,9300 24543,10500 24607,10500 24671,10500 24735,8100"/>
<text text-anchor="start" x="200" y="13400" font-family="Verdana" font-size="500" fill="#000000" >Original Requests</text>
<text text-anchor="start" x="200" y="13900" font-family="Verdana" font-size="500" fill="#000000" >Requests</text>
<text text-anchor="start" x="200" y="14400" font-family="Verdana" font-size="500" fill="#000000" >Average</text>
<text text-anchor="start" x="200" y="14900" font-family="Verdana" font-size="500" fill="#000000" >Minimal</text>
<text text-anchor="start" x="200" y="15400" font-family="Verdana" font-size="500" fill="#000000" >Maximal</text>
<text text-anchor="start" x="200" y="15900" font-family="Verdana" font-size="500" fill="#000000" >Median</text>
<text text-anchor="start" x="200" y="16400" font-family="Verdana" font-size="500" fill="#000000" >90% line</text>
<text text-anchor="start" x="5200" y="13400" font-family="Verdana" font-size="500" fill="#000000" >360</text>
<text text-anchor="start" x="5200" y="13900" font-family="Verdana" font-size="500" fill="#000000" >360</text>
<text text-anchor="start" x="5200" y="14400" font-family="Verdana" font-size="500" fill="#000000" >18ms</text>
<text text-anchor="start" x="5200" y="14900" font-family="Verdana" font-size="500" fill="#000000" >6ms</text>
<text text-anchor="start" x="5200" y="15400" font-family="Verdana" font-size="500" fill="#000000" >50ms</text>
<text text-anchor="start" x="5200" y="15900" font-family="Verdana" font-size="500" fill="#000000" >17ms</text>
<text text-anchor="start" x="5200" y="16400" font-family="Verdana" font-size="500" fill="#000000" >31ms</text>
<text text-anchor="start" x="11200" y="13400" font-family="Verdana" font-size="500" fill="#000000" >Start timestamp</text>
<text text-anchor="start" x="11200" y="13900" font-family="Verdana" font-size="500" fill="#000000" >End timestamp</text>
<text text-anchor="start" x="11200" y="14400" font-family="Verdana" font-size="500" fill="#000000" >Run time</text>
<text text-anchor="start" x="16200" y="13400" font-family="Verdana" font-size="500" fill="#000000" >Wed Aug 05 11:59:43 UTC 2015</text>
<text text-anchor="start" x="16200" y="13900" font-family="Verdana" font-size="500" fill="#000000" >Wed Aug 05 11:59:46 UTC 2015</text>
<text text-anchor="start" x="16200" y="14400" font-family="Verdana" font-size="500" fill="#000000" >00:00:02</text>
<text text-anchor="start" x="16200" y="14900" font-family="Verdana" font-size="500" fill="#000000" >(hh:mm:ss)</text>
</svg>