<?xml version="1.0" encoding="UTF-8"?>
<svg width="160mm" height="90mm" viewBox="0 0 25000 16900" xmlns="http://www.w3.org/2000/svg" version="1.2" baseProfile="tiny" viewport-fill="red"> 
<rect x="0" y="0" width="100%" height="100%" fill="#dedede" stroke-width="0"/><text text-anchor="start" x="200" y="1050" font-family="Verdana" font-size="1050" fill="#000000" >Erstelle Workspace</text>
<path fill="none" stroke="#000000" stroke-width="50" stroke-linejoin="round" d="M 1400,11500 L 24800,11500"/>
<text text-anchor="end" x="1250" y="11572" font-family="Verdana" font-size="288" fill="#000000" >0</text>
<path fill="none" stroke="#000000" stroke-width="50" stroke-linejoin="round" d="M 1400,10634 L 24800,10634"/>
<text text-anchor="end" x="1250" y="10706" font-family="Verdana" font-size="288" fill="#000000" >10</text>
<path fill="none" stroke="#000000" stroke-width="50" stroke-linejoin="round" d="M 1400,9767 L 24800,9767"/>
<text text-anchor="end" x="1250" y="9839" font-family="Verdana" font-size="288" fill="#000000" >20</text>
<path fill="none" stroke="#000000" stroke-width="50" stroke-linejoin="round" d="M 1400,8900 L 24800,8900"/>
<text text-anchor="end" x="1250" y="8972" font-family="Verdana" font-size="288" fill="#000000" >30</text>
<path fill="none" stroke="#000000" stroke-width="50" stroke-linejoin="round" d="M 1400,8034 L 24800,8034"/>
<text text-anchor="end" x="1250" y="8106" font-family="Verdana" font-size="288" fill="#000000" >40</text>
<path fill="none" stroke="#000000" stroke-width="50" stroke-linejoin="round" d="M 1400,7167 L 24800,7167"/>
<text text-anchor="end" x="1250" y="7239" font-family="Verdana" font-size="288" fill="#000000" >50</text>
<path fill="none" stroke="#000000" stroke-width="50" stroke-linejoin="round" d="M 1400,6300 L 24800,6300"/>
<text text-anchor="end" x="1250" y="6372" font-family="Verdana" font-size="288" fill="#000000" >60</text>
<path fill="none" stroke="#000000" stroke-width="50" stroke-linejoin="round" d="M 1400,5434 L 24800,5434"/>
<text text-anchor="end" x="1250" y="5506" font-family="Verdana" font-size="288" fill="#000000" >70</text>
<path fill="none" stroke="#000000" stroke-width="50" stroke-linejoin="round" d="M 1400,4567 L 24800,4567"/>
<text text-anchor="end" x="1250" y="4639" font-family="Verdana" font-size="288" fill="#000000" >80</text>
<path fill="none" stroke="#000000" stroke-width="50" stroke-linejoin="round" d="M 1400,3700 L 24800,3700"/>
<text text-anchor="end" x="1250" y="3772" font-family="Verdana" font-size="288" fill="#000000" >90</text>
<path fill="none" stroke="#000000" stroke-width="50" stroke-linejoin="round" d="M 1400,2834 L 24800,2834"/>
<text text-anchor="end" x="1250" y="2906" font-family="Verdana" font-size="288" fill="#000000" >100</text>
<path fill="none" stroke="#000000" stroke-width="50" stroke-linejoin="round" d="M 1400,1967 L 24800,1967"/>
<text text-anchor="end" x="1250" y="2039" font-family="Verdana" font-size="288" fill="#000000" >110</text>
<path fill="none" stroke="#000000" stroke-width="50" stroke-linejoin="round" d="M 1700,1700 L 1700,12000"/>
<text text-anchor="middle" x="1700" y="12450" font-family="Verdana" font-size="288" fill="#000000" >59:43:795</text>
<path fill="none" stroke="#000000" stroke-width="50" stroke-linejoin="round" d="M 1700,11250 L 1700,12000"/>
<text text-anchor="middle" x="6360" y="12450" font-family="Verdana" font-size="288" fill="#000000" >59:44:430</text>
<path fill="none" stroke="#000000" stroke-width="50" stroke-linejoin="round" d="M 6360,11250 L 6360,12000"/>
<text text-anchor="middle" x="11020" y="12450" font-family="Verdana" font-size="288" fill="#000000" >59:44:832</text>
<path fill="none" stroke="#000000" stroke-width="50" stroke-linejoin="round" d="M 11020,11250 L 11020,12000"/>
<text text-anchor="middle" x="15680" y="12450" font-family="Verdana" font-size="288" fill="#000000" >59:45:176</text>
<path fill="none" stroke="#000000" stroke-width="50" stroke-linejoin="round" d="M 15680,11250 L 15680,12000"/>
<text text-anchor="middle" x="20340" y="12450" font-family="Verdana" font-size="288" fill="#000000" >59:45:525</text>
<path fill="none" stroke="#000000" stroke-width="50" stroke-linejoin="round" d="M 20340,11250 L 20340,12000"/>
<path fill="none" stroke="#004586" stroke-width="80" stroke-linejoin="round" d="M 1700,7592 L 2085,6584 2470,6662 2855,7592 3240,8135 3625,5654 4010,7514 4395,5809 4780,6119 5165,6584 5550,8910 5935,4879 6320,4724 6705,8445 7090,7514 7475,5887 7860,7359 8245,6352 8630,4259 9015,1933 9400,7437 9785,7359 10170,5189 10555,2708 10940,3638 11325,3638 11710,7437 12095,8522 12480,7282 12865,8135 13250,7282 13635,6042 14020,6817 14405,8057 14790,6429 15175,7127 15560,5576 15945,7437 16330,7049 16715,3638 17100,7127 17485,3096 17870,6352 18255,7902 18640,5809 19025,1700 19410,3638 19795,2321 20180,3018 20565,2941 20950,7669 21335,5266 21720,4491 22105,7669 22490,8600 22875,7282 23260,7127 23645,5964 24030,8212 24415,8677"/>
<text text-anchor="start" x="200" y="13400" font-family="Verdana" font-size="500" fill="#000000" >Original Requests</text>
<text text-anchor="start" x="200" y="13900" font-family="Verdana" font-size="500" fill="#000000" >Requests</text>
<text text-anchor="start" x="200" y="14400" font-family="Verdana" font-size="500" fill="#000000" >Average</text>
<text text-anchor="start" x="200" y="14900" font-family="Verdana" font-size="500" fill="#000000" >Minimal</text>
<text text-anchor="start" x="200" y="15400" font-family="Verdana" font-size="500" fill="#000000" >Maximal</text>
<text text-anchor="start" x="200" y="15900" font-family="Verdana" font-size="500" fill="#000000" >Median</text>
<text text-anchor="start" x="200" y="16400" font-family="Verdana" font-size="500" fill="#000000" >90% line</text>
<text text-anchor="start" x="5200" y="13400" font-family="Verdana" font-size="500" fill="#000000" >60</text>
<text text-anchor="start" x="5200" y="13900" font-family="Verdana" font-size="500" fill="#000000" >60</text>
<text text-anchor="start" x="5200" y="14400" font-family="Verdana" font-size="500" fill="#000000" >71ms</text>
<text text-anchor="start" x="5200" y="14900" font-family="Verdana" font-size="500" fill="#000000" >36ms</text>
<text text-anchor="start" x="5200" y="15400" font-family="Verdana" font-size="500" fill="#000000" >129ms</text>
<text text-anchor="start" x="5200" y="15900" font-family="Verdana" font-size="500" fill="#000000" >65ms</text>
<text text-anchor="start" x="5200" y="16400" font-family="Verdana" font-size="500" fill="#000000" >112ms</text>
<text text-anchor="start" x="11200" y="13400" font-family="Verdana" font-size="500" fill="#000000" >Start timestamp</text>
<text text-anchor="start" x="11200" y="13900" font-family="Verdana" font-size="500" fill="#000000" >End timestamp</text>
<text text-anchor="start" x="11200" y="14400" font-family="Verdana" font-size="500" fill="#000000" >Run time</text>
<text text-anchor="start" x="16200" y="13400" font-family="Verdana" font-size="500" fill="#000000" >Wed Aug 05 11:59:43 UTC 2015</text>
<text text-anchor="start" x="16200" y="13900" font-family="Verdana" font-size="500" fill="#000000" >Wed Aug 05 11:59:46 UTC 2015</text>
<text text-anchor="start" x="16200" y="14400" font-family="Verdana" font-size="500" fill="#000000" >00:00:02</text>
<text text-anchor="start" x="16200" y="14900" font-family="Verdana" font-size="500" fill="#000000" >(hh:mm:ss)</text>
</svg>