<?xml version="1.0" encoding="UTF-8"?>
<svg width="160mm" height="90mm" viewBox="0 0 25000 16900" xmlns="http://www.w3.org/2000/svg" version="1.2" baseProfile="tiny" viewport-fill="red"> 
<rect x="0" y="0" width="100%" height="100%" fill="#dedede" stroke-width="0"/><text text-anchor="start" x="200" y="1050" font-family="Verdana" font-size="1050" fill="#000000" >Get people</text>
<path fill="none" stroke="#000000" stroke-width="50" stroke-linejoin="round" d="M 1400,11500 L 24800,11500"/>
<text text-anchor="end" x="1250" y="11561" font-family="Verdana" font-size="247" fill="#000000" >0</text>
<path fill="none" stroke="#000000" stroke-width="50" stroke-linejoin="round" d="M 1400,10758 L 24800,10758"/>
<text text-anchor="end" x="1250" y="10819" font-family="Verdana" font-size="247" fill="#000000" >2</text>
<path fill="none" stroke="#000000" stroke-width="50" stroke-linejoin="round" d="M 1400,10015 L 24800,10015"/>
<text text-anchor="end" x="1250" y="10076" font-family="Verdana" font-size="247" fill="#000000" >4</text>
<path fill="none" stroke="#000000" stroke-width="50" stroke-linejoin="round" d="M 1400,9272 L 24800,9272"/>
<text text-anchor="end" x="1250" y="9333" font-family="Verdana" font-size="247" fill="#000000" >6</text>
<path fill="none" stroke="#000000" stroke-width="50" stroke-linejoin="round" d="M 1400,8529 L 24800,8529"/>
<text text-anchor="end" x="1250" y="8590" font-family="Verdana" font-size="247" fill="#000000" >8</text>
<path fill="none" stroke="#000000" stroke-width="50" stroke-linejoin="round" d="M 1400,7786 L 24800,7786"/>
<text text-anchor="end" x="1250" y="7847" font-family="Verdana" font-size="247" fill="#000000" >10</text>
<path fill="none" stroke="#000000" stroke-width="50" stroke-linejoin="round" d="M 1400,7043 L 24800,7043"/>
<text text-anchor="end" x="1250" y="7104" font-family="Verdana" font-size="247" fill="#000000" >12</text>
<path fill="none" stroke="#000000" stroke-width="50" stroke-linejoin="round" d="M 1400,6300 L 24800,6300"/>
<text text-anchor="end" x="1250" y="6361" font-family="Verdana" font-size="247" fill="#000000" >14</text>
<path fill="none" stroke="#000000" stroke-width="50" stroke-linejoin="round" d="M 1400,5558 L 24800,5558"/>
<text text-anchor="end" x="1250" y="5619" font-family="Verdana" font-size="247" fill="#000000" >16</text>
<path fill="none" stroke="#000000" stroke-width="50" stroke-linejoin="round" d="M 1400,4815 L 24800,4815"/>
<text text-anchor="end" x="1250" y="4876" font-family="Verdana" font-size="247" fill="#000000" >18</text>
<path fill="none" stroke="#000000" stroke-width="50" stroke-linejoin="round" d="M 1400,4072 L 24800,4072"/>
<text text-anchor="end" x="1250" y="4133" font-family="Verdana" font-size="247" fill="#000000" >20</text>
<path fill="none" stroke="#000000" stroke-width="50" stroke-linejoin="round" d="M 1400,3329 L 24800,3329"/>
<text text-anchor="end" x="1250" y="3390" font-family="Verdana" font-size="247" fill="#000000" >22</text>
<path fill="none" stroke="#000000" stroke-width="50" stroke-linejoin="round" d="M 1400,2586 L 24800,2586"/>
<text text-anchor="end" x="1250" y="2647" font-family="Verdana" font-size="247" fill="#000000" >24</text>
<path fill="none" stroke="#000000" stroke-width="50" stroke-linejoin="round" d="M 1400,1843 L 24800,1843"/>
<text text-anchor="end" x="1250" y="1904" font-family="Verdana" font-size="247" fill="#000000" >26</text>
<path fill="none" stroke="#000000" stroke-width="50" stroke-linejoin="round" d="M 1700,1700 L 1700,12000"/>
<text text-anchor="middle" x="1700" y="12450" font-family="Verdana" font-size="247" fill="#000000" >59:46:83</text>
<path fill="none" stroke="#000000" stroke-width="50" stroke-linejoin="round" d="M 1700,11250 L 1700,12000"/>
<text text-anchor="middle" x="6360" y="12450" font-family="Verdana" font-size="247" fill="#000000" >59:46:391</text>
<path fill="none" stroke="#000000" stroke-width="50" stroke-linejoin="round" d="M 6360,11250 L 6360,12000"/>
<text text-anchor="middle" x="11020" y="12450" font-family="Verdana" font-size="247" fill="#000000" >59:46:532</text>
<path fill="none" stroke="#000000" stroke-width="50" stroke-linejoin="round" d="M 11020,11250 L 11020,12000"/>
<text text-anchor="middle" x="15680" y="12450" font-family="Verdana" font-size="247" fill="#000000" >59:46:670</text>
<path fill="none" stroke="#000000" stroke-width="50" stroke-linejoin="round" d="M 15680,11250 L 15680,12000"/>
<text text-anchor="middle" x="20340" y="12450" font-family="Verdana" font-size="247" fill="#000000" >59:46:780</text>
<path fill="none" stroke="#000000" stroke-width="50" stroke-linejoin="round" d="M 20340,11250 L 20340,12000"/>
<path fill="none" stroke="#004586" stroke-width="80" stroke-linejoin="round" d="M 1700,6528 L 2085,5494 2470,5494 2855,7907 3240,9287 3625,8252 4010,4459 4395,9632 4780,3425 5165,5838 5550,2735 5935,8252 6320,11011 6705,7563 7090,1700 7475,10666 7860,11011 8245,9287 8630,11011 9015,11356 9400,11356 9785,7907 10170,11011 10555,10321 10940,7563 11325,11011 11710,10321 12095,8942 12480,8252 12865,6183 13250,10321 13635,6183 14020,11011 14405,7218 14790,11011 15175,9632 15560,7907 15945,4804 16330,7563 16715,4804 17100,9976 17485,5838 17870,11011 18255,8942 18640,9976 19025,9632 19410,7218 19795,11011 20180,9632 20565,9976 20950,9632 21335,7563 21720,9632 22105,6528 22490,8252 22875,10321 23260,7563 23645,7907 24030,4804 24415,7907"/>
<text text-anchor="start" x="200" y="13400" font-family="Verdana" font-size="500" fill="#000000" >Original Requests</text>
<text text-anchor="start" x="200" y="13900" font-family="Verdana" font-size="500" fill="#000000" >Requests</text>
<text text-anchor="start" x="200" y="14400" font-family="Verdana" font-size="500" fill="#000000" >Average</text>
<text text-anchor="start" x="200" y="14900" font-family="Verdana" font-size="500" fill="#000000" >Minimal</text>
<text text-anchor="start" x="200" y="15400" font-family="Verdana" font-size="500" fill="#000000" >Maximal</text>
<text text-anchor="start" x="200" y="15900" font-family="Verdana" font-size="500" fill="#000000" >Median</text>
<text text-anchor="start" x="200" y="16400" font-family="Verdana" font-size="500" fill="#000000" >90% line</text>
<text text-anchor="start" x="5200" y="13400" font-family="Verdana" font-size="500" fill="#000000" >60</text>
<text text-anchor="start" x="5200" y="13900" font-family="Verdana" font-size="500" fill="#000000" >60</text>
<text text-anchor="start" x="5200" y="14400" font-family="Verdana" font-size="500" fill="#000000" >9ms</text>
<text text-anchor="start" x="5200" y="14900" font-family="Verdana" font-size="500" fill="#000000" >1ms</text>
<text text-anchor="start" x="5200" y="15400" font-family="Verdana" font-size="500" fill="#000000" >29ms</text>
<text text-anchor="start" x="5200" y="15900" font-family="Verdana" font-size="500" fill="#000000" >10ms</text>
<text text-anchor="start" x="5200" y="16400" font-family="Verdana" font-size="500" fill="#000000" >20ms</text>
<text text-anchor="start" x="11200" y="13400" font-family="Verdana" font-size="500" fill="#000000" >Start timestamp</text>
<text text-anchor="start" x="11200" y="13900" font-family="Verdana" font-size="500" fill="#000000" >End timestamp</text>
<text text-anchor="start" x="11200" y="14400" font-family="Verdana" font-size="500" fill="#000000" >Run time</text>
<text text-anchor="start" x="16200" y="13400" font-family="Verdana" font-size="500" fill="#000000" >Wed Aug 05 11:59:46 UTC 2015</text>
<text text-anchor="start" x="16200" y="13900" font-family="Verdana" font-size="500" fill="#000000" >Wed Aug 05 11:59:46 UTC 2015</text>
<text text-anchor="start" x="16200" y="14400" font-family="Verdana" font-size="500" fill="#000000" >00:00:00</text>
<text text-anchor="start" x="16200" y="14900" font-family="Verdana" font-size="500" fill="#000000" >(hh:mm:ss)</text>
</svg>