<?xml version="1.0" encoding="UTF-8"?>
<svg width="160mm" height="90mm" viewBox="0 0 25000 16900" xmlns="http://www.w3.org/2000/svg" version="1.2" baseProfile="tiny" viewport-fill="red"> 
<rect x="0" y="0" width="100%" height="100%" fill="#dedede" stroke-width="0"/><text text-anchor="start" x="200" y="1050" font-family="Verdana" font-size="1050" fill="#000000" >LinkedList: Check access Short</text>
<path fill="none" stroke="#000000" stroke-width="50" stroke-linejoin="round" d="M 1400,11500 L 24800,11500"/>
<text text-anchor="end" x="1250" y="11586" font-family="Verdana" font-size="346" fill="#000000" >0</text>
<path fill="none" stroke="#000000" stroke-width="50" stroke-linejoin="round" d="M 1400,10460 L 24800,10460"/>
<text text-anchor="end" x="1250" y="10546" font-family="Verdana" font-size="346" fill="#000000" >70</text>
<path fill="none" stroke="#000000" stroke-width="50" stroke-linejoin="round" d="M 1400,9420 L 24800,9420"/>
<text text-anchor="end" x="1250" y="9506" font-family="Verdana" font-size="346" fill="#000000" >140</text>
<path fill="none" stroke="#000000" stroke-width="50" stroke-linejoin="round" d="M 1400,8380 L 24800,8380"/>
<text text-anchor="end" x="1250" y="8466" font-family="Verdana" font-size="346" fill="#000000" >210</text>
<path fill="none" stroke="#000000" stroke-width="50" stroke-linejoin="round" d="M 1400,7340 L 24800,7340"/>
<text text-anchor="end" x="1250" y="7426" font-family="Verdana" font-size="346" fill="#000000" >280</text>
<path fill="none" stroke="#000000" stroke-width="50" stroke-linejoin="round" d="M 1400,6300 L 24800,6300"/>
<text text-anchor="end" x="1250" y="6386" font-family="Verdana" font-size="346" fill="#000000" >350</text>
<path fill="none" stroke="#000000" stroke-width="50" stroke-linejoin="round" d="M 1400,5260 L 24800,5260"/>
<text text-anchor="end" x="1250" y="5346" font-family="Verdana" font-size="346" fill="#000000" >420</text>
<path fill="none" stroke="#000000" stroke-width="50" stroke-linejoin="round" d="M 1400,4220 L 24800,4220"/>
<text text-anchor="end" x="1250" y="4306" font-family="Verdana" font-size="346" fill="#000000" >490</text>
<path fill="none" stroke="#000000" stroke-width="50" stroke-linejoin="round" d="M 1400,3180 L 24800,3180"/>
<text text-anchor="end" x="1250" y="3266" font-family="Verdana" font-size="346" fill="#000000" >560</text>
<path fill="none" stroke="#000000" stroke-width="50" stroke-linejoin="round" d="M 1400,2140 L 24800,2140"/>
<text text-anchor="end" x="1250" y="2226" font-family="Verdana" font-size="346" fill="#000000" >630</text>
<path fill="none" stroke="#000000" stroke-width="50" stroke-linejoin="round" d="M 1700,1700 L 1700,12000"/>
<text text-anchor="middle" x="1700" y="12450" font-family="Verdana" font-size="346" fill="#000000" >59:49:330</text>
<path fill="none" stroke="#000000" stroke-width="50" stroke-linejoin="round" d="M 1700,11250 L 1700,12000"/>
<text text-anchor="middle" x="6360" y="12450" font-family="Verdana" font-size="346" fill="#000000" >59:49:660</text>
<path fill="none" stroke="#000000" stroke-width="50" stroke-linejoin="round" d="M 6360,11250 L 6360,12000"/>
<text text-anchor="middle" x="11020" y="12450" font-family="Verdana" font-size="346" fill="#000000" >59:49:825</text>
<path fill="none" stroke="#000000" stroke-width="50" stroke-linejoin="round" d="M 11020,11250 L 11020,12000"/>
<text text-anchor="middle" x="15680" y="12450" font-family="Verdana" font-size="346" fill="#000000" >59:49:952</text>
<path fill="none" stroke="#000000" stroke-width="50" stroke-linejoin="round" d="M 15680,11250 L 15680,12000"/>
<text text-anchor="middle" x="20340" y="12450" font-family="Verdana" font-size="346" fill="#000000" >59:50:556</text>
<path fill="none" stroke="#000000" stroke-width="50" stroke-linejoin="round" d="M 20340,11250 L 20340,12000"/>
<path fill="none" stroke="#004586" stroke-width="80" stroke-linejoin="round" d="M 1700,7344 L 2470,7892 3240,7646 4010,7043 4780,7016 5550,6961 6320,6824 7090,6413 7860,6673 8630,2646 9400,6385 10170,6303 10940,1769 11710,1796 12480,1742 13250,6728 14020,6632 14790,2591 15560,1700 16330,2111 17100,3166 17870,2207 18640,6427 19410,2522 20180,4440 20950,6714 21720,6659 22490,6057 23260,6111 24030,6769"/>
<text text-anchor="start" x="200" y="13400" font-family="Verdana" font-size="500" fill="#000000" >Original Requests</text>
<text text-anchor="start" x="200" y="13900" font-family="Verdana" font-size="500" fill="#000000" >Requests</text>
<text text-anchor="start" x="200" y="14400" font-family="Verdana" font-size="500" fill="#000000" >Average</text>
<text text-anchor="start" x="200" y="14900" font-family="Verdana" font-size="500" fill="#000000" >Minimal</text>
<text text-anchor="start" x="200" y="15400" font-family="Verdana" font-size="500" fill="#000000" >Maximal</text>
<text text-anchor="start" x="200" y="15900" font-family="Verdana" font-size="500" fill="#000000" >Median</text>
<text text-anchor="start" x="200" y="16400" font-family="Verdana" font-size="500" fill="#000000" >90% line</text>
<text text-anchor="start" x="5200" y="13400" font-family="Verdana" font-size="500" fill="#000000" >30</text>
<text text-anchor="start" x="5200" y="13900" font-family="Verdana" font-size="500" fill="#000000" >30</text>
<text text-anchor="start" x="5200" y="14400" font-family="Verdana" font-size="500" fill="#000000" >476ms</text>
<text text-anchor="start" x="5200" y="14900" font-family="Verdana" font-size="500" fill="#000000" >278ms</text>
<text text-anchor="start" x="5200" y="15400" font-family="Verdana" font-size="500" fill="#000000" >730ms</text>
<text text-anchor="start" x="5200" y="15900" font-family="Verdana" font-size="500" fill="#000000" >386ms</text>
<text text-anchor="start" x="5200" y="16400" font-family="Verdana" font-size="500" fill="#000000" >725ms</text>
<text text-anchor="start" x="11200" y="13400" font-family="Verdana" font-size="500" fill="#000000" >Start timestamp</text>
<text text-anchor="start" x="11200" y="13900" font-family="Verdana" font-size="500" fill="#000000" >End timestamp</text>
<text text-anchor="start" x="11200" y="14400" font-family="Verdana" font-size="500" fill="#000000" >Run time</text>
<text text-anchor="start" x="16200" y="13400" font-family="Verdana" font-size="500" fill="#000000" >Wed Aug 05 11:59:49 UTC 2015</text>
<text text-anchor="start" x="16200" y="13900" font-family="Verdana" font-size="500" fill="#000000" >Wed Aug 05 11:59:50 UTC 2015</text>
<text text-anchor="start" x="16200" y="14400" font-family="Verdana" font-size="500" fill="#000000" >00:00:01</text>
<text text-anchor="start" x="16200" y="14900" font-family="Verdana" font-size="500" fill="#000000" >(hh:mm:ss)</text>
</svg>