<?xml version="1.0" encoding="UTF-8"?>
<svg width="160mm" height="90mm" viewBox="0 0 25000 16900" xmlns="http://www.w3.org/2000/svg" version="1.2" baseProfile="tiny" viewport-fill="red"> 
<rect x="0" y="0" width="100%" height="100%" fill="#dedede" stroke-width="0"/><text text-anchor="start" x="200" y="1050" font-family="Verdana" font-size="1050" fill="#000000" >Relate stuff</text>
<path fill="none" stroke="#000000" stroke-width="50" stroke-linejoin="round" d="M 1400,11500 L 24800,11500"/>
<text text-anchor="end" x="1250" y="11586" font-family="Verdana" font-size="346" fill="#000000" >0</text>
<path fill="none" stroke="#000000" stroke-width="50" stroke-linejoin="round" d="M 1400,10460 L 24800,10460"/>
<text text-anchor="end" x="1250" y="10546" font-family="Verdana" font-size="346" fill="#000000" >7</text>
<path fill="none" stroke="#000000" stroke-width="50" stroke-linejoin="round" d="M 1400,9420 L 24800,9420"/>
<text text-anchor="end" x="1250" y="9506" font-family="Verdana" font-size="346" fill="#000000" >14</text>
<path fill="none" stroke="#000000" stroke-width="50" stroke-linejoin="round" d="M 1400,8380 L 24800,8380"/>
<text text-anchor="end" x="1250" y="8466" font-family="Verdana" font-size="346" fill="#000000" >21</text>
<path fill="none" stroke="#000000" stroke-width="50" stroke-linejoin="round" d="M 1400,7340 L 24800,7340"/>
<text text-anchor="end" x="1250" y="7426" font-family="Verdana" font-size="346" fill="#000000" >28</text>
<path fill="none" stroke="#000000" stroke-width="50" stroke-linejoin="round" d="M 1400,6300 L 24800,6300"/>
<text text-anchor="end" x="1250" y="6386" font-family="Verdana" font-size="346" fill="#000000" >35</text>
<path fill="none" stroke="#000000" stroke-width="50" stroke-linejoin="round" d="M 1400,5260 L 24800,5260"/>
<text text-anchor="end" x="1250" y="5346" font-family="Verdana" font-size="346" fill="#000000" >42</text>
<path fill="none" stroke="#000000" stroke-width="50" stroke-linejoin="round" d="M 1400,4220 L 24800,4220"/>
<text text-anchor="end" x="1250" y="4306" font-family="Verdana" font-size="346" fill="#000000" >49</text>
<path fill="none" stroke="#000000" stroke-width="50" stroke-linejoin="round" d="M 1400,3180 L 24800,3180"/>
<text text-anchor="end" x="1250" y="3266" font-family="Verdana" font-size="346" fill="#000000" >56</text>
<path fill="none" stroke="#000000" stroke-width="50" stroke-linejoin="round" d="M 1400,2140 L 24800,2140"/>
<text text-anchor="end" x="1250" y="2226" font-family="Verdana" font-size="346" fill="#000000" >63</text>
<path fill="none" stroke="#000000" stroke-width="50" stroke-linejoin="round" d="M 1700,1700 L 1700,12000"/>
<text text-anchor="middle" x="1700" y="12450" font-family="Verdana" font-size="346" fill="#000000" >59:40:644</text>
<path fill="none" stroke="#000000" stroke-width="50" stroke-linejoin="round" d="M 1700,11250 L 1700,12000"/>
<text text-anchor="middle" x="6360" y="12450" font-family="Verdana" font-size="346" fill="#000000" >59:40:754</text>
<path fill="none" stroke="#000000" stroke-width="50" stroke-linejoin="round" d="M 6360,11250 L 6360,12000"/>
<text text-anchor="middle" x="11020" y="12450" font-family="Verdana" font-size="346" fill="#000000" >59:41:30</text>
<path fill="none" stroke="#000000" stroke-width="50" stroke-linejoin="round" d="M 11020,11250 L 11020,12000"/>
<text text-anchor="middle" x="15680" y="12450" font-family="Verdana" font-size="346" fill="#000000" >59:41:87</text>
<path fill="none" stroke="#000000" stroke-width="50" stroke-linejoin="round" d="M 15680,11250 L 15680,12000"/>
<text text-anchor="middle" x="20340" y="12450" font-family="Verdana" font-size="346" fill="#000000" >59:41:107</text>
<path fill="none" stroke="#000000" stroke-width="50" stroke-linejoin="round" d="M 20340,11250 L 20340,12000"/>
<path fill="none" stroke="#004586" stroke-width="80" stroke-linejoin="round" d="M 1700,9783 L 1956,9783 2213,10468 2470,9509 2726,6084 2983,8276 3240,9235 3496,9783 3753,10331 4010,8139 4266,9372 4523,7728 4780,10194 5036,8276 5293,8276 5550,10879 5806,7180 6063,9646 6320,10331 6576,9235 6833,8413 7090,9509 7346,9372 7603,10331 7860,8002 8116,8687 8373,8687 8630,9098 8886,9235 9143,9783 9400,7043 9656,1700 9913,7454 10170,7728 10426,8002 10683,3344 10940,9646 11196,10605 11453,3481 11710,6495 11966,7865 12223,5947 12480,6084 12736,10194 12993,8687 13250,8002 13506,7180 13763,10057 14020,7865 14276,9509 14533,10194 14790,7865 15046,9235 15303,9235 15560,8961 15816,7865 16073,8824 16330,9509 16586,10194 16843,10194 17100,7454 17356,7317 17613,7454 17870,9235 18126,8002 18383,8687 18640,10331 18896,9235 19153,10057 19410,9920 19666,7317 19923,10468 20180,10194 20436,8002 20693,7865 20950,7454 21206,11153 21463,10194 21720,9509 21976,8139 22233,8550 22490,7591 22746,10331 23003,8139 23260,10194 23516,9509 23773,9646 24030,9098 24286,8687 24543,8961"/>
<text text-anchor="start" x="200" y="13400" font-family="Verdana" font-size="500" fill="#000000" >Original Requests</text>
<text text-anchor="start" x="200" y="13900" font-family="Verdana" font-size="500" fill="#000000" >Requests</text>
<text text-anchor="start" x="200" y="14400" font-family="Verdana" font-size="500" fill="#000000" >Average</text>
<text text-anchor="start" x="200" y="14900" font-family="Verdana" font-size="500" fill="#000000" >Minimal</text>
<text text-anchor="start" x="200" y="15400" font-family="Verdana" font-size="500" fill="#000000" >Maximal</text>
<text text-anchor="start" x="200" y="15900" font-family="Verdana" font-size="500" fill="#000000" >Median</text>
<text text-anchor="start" x="200" y="16400" font-family="Verdana" font-size="500" fill="#000000" >90% line</text>
<text text-anchor="start" x="5200" y="13400" font-family="Verdana" font-size="500" fill="#000000" >90</text>
<text text-anchor="start" x="5200" y="13900" font-family="Verdana" font-size="500" fill="#000000" >90</text>
<text text-anchor="start" x="5200" y="14400" font-family="Verdana" font-size="500" fill="#000000" >22ms</text>
<text text-anchor="start" x="5200" y="14900" font-family="Verdana" font-size="500" fill="#000000" >4ms</text>
<text text-anchor="start" x="5200" y="15400" font-family="Verdana" font-size="500" fill="#000000" >73ms</text>
<text text-anchor="start" x="5200" y="15900" font-family="Verdana" font-size="500" fill="#000000" >19ms</text>
<text text-anchor="start" x="5200" y="16400" font-family="Verdana" font-size="500" fill="#000000" >33ms</text>
<text text-anchor="start" x="11200" y="13400" font-family="Verdana" font-size="500" fill="#000000" >Start timestamp</text>
<text text-anchor="start" x="11200" y="13900" font-family="Verdana" font-size="500" fill="#000000" >End timestamp</text>
<text text-anchor="start" x="11200" y="14400" font-family="Verdana" font-size="500" fill="#000000" >Run time</text>
<text text-anchor="start" x="16200" y="13400" font-family="Verdana" font-size="500" fill="#000000" >Wed Aug 05 11:59:40 UTC 2015</text>
<text text-anchor="start" x="16200" y="13900" font-family="Verdana" font-size="500" fill="#000000" >Wed Aug 05 11:59:41 UTC 2015</text>
<text text-anchor="start" x="16200" y="14400" font-family="Verdana" font-size="500" fill="#000000" >00:00:00</text>
<text text-anchor="start" x="16200" y="14900" font-family="Verdana" font-size="500" fill="#000000" >(hh:mm:ss)</text>
</svg>