<?xml version="1.0" encoding="UTF-8"?>
<svg width="160mm" height="90mm" viewBox="0 0 25000 16900" xmlns="http://www.w3.org/2000/svg" version="1.2" baseProfile="tiny" viewport-fill="red"> 
<rect x="0" y="0" width="100%" height="100%" fill="#dedede" stroke-width="0"/><text text-anchor="start" x="200" y="1050" font-family="Verdana" font-size="1050" fill="#000000" >Verlinke wsi mit plain text</text>
<path fill="none" stroke="#000000" stroke-width="50" stroke-linejoin="round" d="M 1400,11500 L 24800,11500"/>
<text text-anchor="end" x="1250" y="11572" font-family="Verdana" font-size="288" fill="#000000" >0</text>
<path fill="none" stroke="#000000" stroke-width="50" stroke-linejoin="round" d="M 1400,10634 L 24800,10634"/>
<text text-anchor="end" x="1250" y="10706" font-family="Verdana" font-size="288" fill="#000000" >2</text>
<path fill="none" stroke="#000000" stroke-width="50" stroke-linejoin="round" d="M 1400,9767 L 24800,9767"/>
<text text-anchor="end" x="1250" y="9839" font-family="Verdana" font-size="288" fill="#000000" >4</text>
<path fill="none" stroke="#000000" stroke-width="50" stroke-linejoin="round" d="M 1400,8900 L 24800,8900"/>
<text text-anchor="end" x="1250" y="8972" font-family="Verdana" font-size="288" fill="#000000" >6</text>
<path fill="none" stroke="#000000" stroke-width="50" stroke-linejoin="round" d="M 1400,8034 L 24800,8034"/>
<text text-anchor="end" x="1250" y="8106" font-family="Verdana" font-size="288" fill="#000000" >8</text>
<path fill="none" stroke="#000000" stroke-width="50" stroke-linejoin="round" d="M 1400,7167 L 24800,7167"/>
<text text-anchor="end" x="1250" y="7239" font-family="Verdana" font-size="288" fill="#000000" >10</text>
<path fill="none" stroke="#000000" stroke-width="50" stroke-linejoin="round" d="M 1400,6300 L 24800,6300"/>
<text text-anchor="end" x="1250" y="6372" font-family="Verdana" font-size="288" fill="#000000" >12</text>
<path fill="none" stroke="#000000" stroke-width="50" stroke-linejoin="round" d="M 1400,5434 L 24800,5434"/>
<text text-anchor="end" x="1250" y="5506" font-family="Verdana" font-size="288" fill="#000000" >14</text>
<path fill="none" stroke="#000000" stroke-width="50" stroke-linejoin="round" d="M 1400,4567 L 24800,4567"/>
<text text-anchor="end" x="1250" y="4639" font-family="Verdana" font-size="288" fill="#000000" >16</text>
<path fill="none" stroke="#000000" stroke-width="50" stroke-linejoin="round" d="M 1400,3700 L 24800,3700"/>
<text text-anchor="end" x="1250" y="3772" font-family="Verdana" font-size="288" fill="#000000" >18</text>
<path fill="none" stroke="#000000" stroke-width="50" stroke-linejoin="round" d="M 1400,2834 L 24800,2834"/>
<text text-anchor="end" x="1250" y="2906" font-family="Verdana" font-size="288" fill="#000000" >20</text>
<path fill="none" stroke="#000000" stroke-width="50" stroke-linejoin="round" d="M 1400,1967 L 24800,1967"/>
<text text-anchor="end" x="1250" y="2039" font-family="Verdana" font-size="288" fill="#000000" >22</text>
<path fill="none" stroke="#000000" stroke-width="50" stroke-linejoin="round" d="M 1700,1700 L 1700,12000"/>
<text text-anchor="middle" x="1700" y="12450" font-family="Verdana" font-size="288" fill="#000000" >59:43:893</text>
<path fill="none" stroke="#000000" stroke-width="50" stroke-linejoin="round" d="M 1700,11250 L 1700,12000"/>
<text text-anchor="middle" x="6360" y="12450" font-family="Verdana" font-size="288" fill="#000000" >59:44:668</text>
<path fill="none" stroke="#000000" stroke-width="50" stroke-linejoin="round" d="M 6360,11250 L 6360,12000"/>
<text text-anchor="middle" x="11020" y="12450" font-family="Verdana" font-size="288" fill="#000000" >59:45:30</text>
<path fill="none" stroke="#000000" stroke-width="50" stroke-linejoin="round" d="M 11020,11250 L 11020,12000"/>
<text text-anchor="middle" x="15680" y="12450" font-family="Verdana" font-size="288" fill="#000000" >59:45:363</text>
<path fill="none" stroke="#000000" stroke-width="50" stroke-linejoin="round" d="M 15680,11250 L 15680,12000"/>
<text text-anchor="middle" x="20340" y="12450" font-family="Verdana" font-size="288" fill="#000000" >59:45:744</text>
<path fill="none" stroke="#000000" stroke-width="50" stroke-linejoin="round" d="M 20340,11250 L 20340,12000"/>
<path fill="none" stroke="#004586" stroke-width="80" stroke-linejoin="round" d="M 1700,9700 L 1828,9300 1956,9300 2085,9300 2213,8100 2341,9700 2470,9300 2598,8500 2726,8900 2855,8900 2983,9300 3111,9300 3240,8900 3368,8100 3496,9700 3625,7300 3753,8500 3881,8500 4010,9300 4138,7700 4266,8500 4395,1700 4523,9700 4651,6500 4780,6900 4908,6500 5036,8100 5165,9300 5293,8900 5421,4100 5550,9300 5678,7700 5806,5300 5935,6100 6063,5300 6191,8500 6320,5700 6448,9300 6576,8100 6705,4500 6833,4500 6961,5700 7090,5300 7218,7700 7346,8500 7475,4900 7603,3300 7731,6900 7860,5700 7988,9300 8116,5700 8245,7700 8373,6100 8501,3700 8630,6900 8758,9300 8886,6100 9015,9300 9143,7700 9271,8100 9400,9300 9528,5700 9656,6900 9785,6500 9913,6900 10041,9300 10170,7700 10298,6500 10426,6500 10555,7300 10683,8900 10811,7700 10940,6500 11068,8900 11196,9300 11325,6100 11453,6900 11581,7300 11710,5700 11838,8900 11966,8100 12095,6500 12223,8500 12351,6100 12480,6100 12608,7300 12736,7300 12865,7700 12993,8500 13121,8900 13250,6500 13378,7300 13506,8500 13635,8500 13763,6100 13891,6100 14020,4100 14148,6100 14276,5700 14405,6500 14533,5300 14661,8900 14790,6500 14918,6900 15046,5700 15175,2900 15303,6900 15431,4100 15560,9300 15688,9300 15816,2900 15945,8900 16073,4100 16201,4500 16330,5300 16458,6100 16586,9700 16715,8100 16843,2900 16971,5700 17100,5700 17228,5700 17356,8100 17485,8100 17613,8900 17741,4500 17870,8900 17998,7700 18126,7300 18255,4900 18383,5700 18511,8100 18640,7700 18768,6900 18896,6900 19025,7700 19153,7300 19281,4900 19410,7700 19538,8100 19666,7700 19795,6100 19923,6500 20051,5700 20180,7700 20308,9300 20436,8900 20565,8500 20693,9300 20821,8100 20950,7700 21078,8100 21206,6900 21335,6500 21463,4100 21591,7300 21720,6900 21848,9300 21976,9300 22105,8500 22233,8100 22361,6100 22490,8900 22618,6900 22746,8100 22875,7700 23003,7700 23131,8500 23260,8900 23388,7700 23516,8900 23645,9300 23773,8900 23901,8900 24030,8100 24158,8900 24286,8500 24415,8100 24543,8900 24671,9300"/>
<text text-anchor="start" x="200" y="13400" font-family="Verdana" font-size="500" fill="#000000" >Original Requests</text>
<text text-anchor="start" x="200" y="13900" font-family="Verdana" font-size="500" fill="#000000" >Requests</text>
<text text-anchor="start" x="200" y="14400" font-family="Verdana" font-size="500" fill="#000000" >Average</text>
<text text-anchor="start" x="200" y="14900" font-family="Verdana" font-size="500" fill="#000000" >Minimal</text>
<text text-anchor="start" x="200" y="15400" font-family="Verdana" font-size="500" fill="#000000" >Maximal</text>
<text text-anchor="start" x="200" y="15900" font-family="Verdana" font-size="500" fill="#000000" >Median</text>
<text text-anchor="start" x="200" y="16400" font-family="Verdana" font-size="500" fill="#000000" >90% line</text>
<text text-anchor="start" x="5200" y="13400" font-family="Verdana" font-size="500" fill="#000000" >180</text>
<text text-anchor="start" x="5200" y="13900" font-family="Verdana" font-size="500" fill="#000000" >180</text>
<text text-anchor="start" x="5200" y="14400" font-family="Verdana" font-size="500" fill="#000000" >10ms</text>
<text text-anchor="start" x="5200" y="14900" font-family="Verdana" font-size="500" fill="#000000" >5ms</text>
<text text-anchor="start" x="5200" y="15400" font-family="Verdana" font-size="500" fill="#000000" >25ms</text>
<text text-anchor="start" x="5200" y="15900" font-family="Verdana" font-size="500" fill="#000000" >10ms</text>
<text text-anchor="start" x="5200" y="16400" font-family="Verdana" font-size="500" fill="#000000" >17ms</text>
<text text-anchor="start" x="11200" y="13400" font-family="Verdana" font-size="500" fill="#000000" >Start timestamp</text>
<text text-anchor="start" x="11200" y="13900" font-family="Verdana" font-size="500" fill="#000000" >End timestamp</text>
<text text-anchor="start" x="11200" y="14400" font-family="Verdana" font-size="500" fill="#000000" >Run time</text>
<text text-anchor="start" x="16200" y="13400" font-family="Verdana" font-size="500" fill="#000000" >Wed Aug 05 11:59:43 UTC 2015</text>
<text text-anchor="start" x="16200" y="13900" font-family="Verdana" font-size="500" fill="#000000" >Wed Aug 05 11:59:46 UTC 2015</text>
<text text-anchor="start" x="16200" y="14400" font-family="Verdana" font-size="500" fill="#000000" >00:00:02</text>
<text text-anchor="start" x="16200" y="14900" font-family="Verdana" font-size="500" fill="#000000" >(hh:mm:ss)</text>
</svg>